<mxfile host="app.diagrams.net" modified="2022-12-30T00:51:46.272Z" agent="5.0 (Windows NT 10.0; Win64; x64) AppleWebKit/537.36 (KHTML, like Gecko) Chrome/108.0.0.0 Safari/537.36 Edg/108.0.1462.54" etag="tLitve_QqrSptILm1ZSv" version="20.7.4" type="github" pages="5">
  <diagram id="9-TdltE5aS-MopY5AhEj" name="Use Case DIagram">
    <mxGraphModel dx="1034" dy="508" grid="1" gridSize="10" guides="1" tooltips="1" connect="1" arrows="1" fold="1" page="1" pageScale="1" pageWidth="850" pageHeight="1100" math="0" shadow="0">
      <root>
        <mxCell id="0" />
        <mxCell id="1" parent="0" />
        <mxCell id="pKxpa_zlyJSqr-g57ZnP-1" value="&lt;font style=&quot;font-size: 12px;&quot;&gt;&lt;span&gt;UC Diagram&lt;br&gt;UPT Karir dan Konseling&lt;/span&gt;&lt;/font&gt;" style="shape=umlFrame;whiteSpace=wrap;html=1;width=165;height=40;fontStyle=0;movable=0;resizable=0;rotatable=0;deletable=0;editable=0;connectable=0;" parent="1" vertex="1">
          <mxGeometry x="115" y="10" width="595" height="490" as="geometry" />
        </mxCell>
        <mxCell id="pKxpa_zlyJSqr-g57ZnP-2" value="" style="rounded=0;whiteSpace=wrap;html=1;fontSize=10;fillColor=none;movable=0;resizable=0;rotatable=0;deletable=0;editable=0;connectable=0;" parent="1" vertex="1">
          <mxGeometry x="190" y="70" width="440" height="400" as="geometry" />
        </mxCell>
        <mxCell id="pKxpa_zlyJSqr-g57ZnP-3" style="rounded=0;orthogonalLoop=1;jettySize=auto;html=1;exitX=1;exitY=0.3333333333333333;exitDx=0;exitDy=0;exitPerimeter=0;entryX=0;entryY=1;entryDx=0;entryDy=0;endArrow=none;endFill=0;fillColor=#ffe6cc;strokeColor=#d79b00;movable=0;resizable=0;rotatable=0;deletable=0;editable=0;connectable=0;" parent="1" source="pKxpa_zlyJSqr-g57ZnP-8" target="pKxpa_zlyJSqr-g57ZnP-25" edge="1">
          <mxGeometry relative="1" as="geometry" />
        </mxCell>
        <mxCell id="pKxpa_zlyJSqr-g57ZnP-4" style="edgeStyle=none;rounded=0;orthogonalLoop=1;jettySize=auto;html=1;exitX=1;exitY=0.3333333333333333;exitDx=0;exitDy=0;exitPerimeter=0;entryX=0;entryY=0;entryDx=0;entryDy=0;endArrow=none;endFill=0;fillColor=#ffe6cc;strokeColor=#d79b00;movable=0;resizable=0;rotatable=0;deletable=0;editable=0;connectable=0;" parent="1" source="pKxpa_zlyJSqr-g57ZnP-8" target="pKxpa_zlyJSqr-g57ZnP-26" edge="1">
          <mxGeometry relative="1" as="geometry" />
        </mxCell>
        <mxCell id="pKxpa_zlyJSqr-g57ZnP-5" style="edgeStyle=none;rounded=0;orthogonalLoop=1;jettySize=auto;html=1;exitX=1;exitY=0.3333333333333333;exitDx=0;exitDy=0;exitPerimeter=0;entryX=0;entryY=0.5;entryDx=0;entryDy=0;endArrow=none;endFill=0;fillColor=#ffe6cc;strokeColor=#d79b00;movable=0;resizable=0;rotatable=0;deletable=0;editable=0;connectable=0;" parent="1" source="pKxpa_zlyJSqr-g57ZnP-8" target="pKxpa_zlyJSqr-g57ZnP-37" edge="1">
          <mxGeometry relative="1" as="geometry" />
        </mxCell>
        <mxCell id="pKxpa_zlyJSqr-g57ZnP-6" style="edgeStyle=none;rounded=0;orthogonalLoop=1;jettySize=auto;html=1;exitX=1;exitY=0.3333333333333333;exitDx=0;exitDy=0;exitPerimeter=0;entryX=0;entryY=0.5;entryDx=0;entryDy=0;endArrow=none;endFill=0;fillColor=#ffe6cc;strokeColor=#d79b00;movable=0;resizable=0;rotatable=0;deletable=0;editable=0;connectable=0;" parent="1" source="pKxpa_zlyJSqr-g57ZnP-8" target="pKxpa_zlyJSqr-g57ZnP-38" edge="1">
          <mxGeometry relative="1" as="geometry" />
        </mxCell>
        <mxCell id="pKxpa_zlyJSqr-g57ZnP-7" style="edgeStyle=none;rounded=0;orthogonalLoop=1;jettySize=auto;html=1;exitX=1;exitY=0.3333333333333333;exitDx=0;exitDy=0;exitPerimeter=0;entryX=0;entryY=0.5;entryDx=0;entryDy=0;endArrow=none;endFill=0;fillColor=#ffe6cc;strokeColor=#d79b00;movable=0;resizable=0;rotatable=0;deletable=0;editable=0;connectable=0;" parent="1" source="pKxpa_zlyJSqr-g57ZnP-8" target="pKxpa_zlyJSqr-g57ZnP-41" edge="1">
          <mxGeometry relative="1" as="geometry" />
        </mxCell>
        <mxCell id="pKxpa_zlyJSqr-g57ZnP-8" value="Konseli" style="shape=umlActor;verticalLabelPosition=bottom;verticalAlign=top;html=1;outlineConnect=0;fillColor=#ffe6cc;strokeColor=#d79b00;strokeWidth=2;movable=0;resizable=0;rotatable=0;deletable=0;editable=0;connectable=0;" parent="1" vertex="1">
          <mxGeometry x="150" y="155" width="30" height="60" as="geometry" />
        </mxCell>
        <mxCell id="pKxpa_zlyJSqr-g57ZnP-9" style="edgeStyle=none;rounded=0;orthogonalLoop=1;jettySize=auto;html=1;exitX=1;exitY=0.3333333333333333;exitDx=0;exitDy=0;exitPerimeter=0;entryX=0;entryY=0.5;entryDx=0;entryDy=0;endArrow=none;endFill=0;movable=0;resizable=0;rotatable=0;deletable=0;editable=0;connectable=0;" parent="1" source="pKxpa_zlyJSqr-g57ZnP-15" target="pKxpa_zlyJSqr-g57ZnP-41" edge="1">
          <mxGeometry relative="1" as="geometry" />
        </mxCell>
        <mxCell id="pKxpa_zlyJSqr-g57ZnP-10" style="edgeStyle=none;rounded=0;orthogonalLoop=1;jettySize=auto;html=1;exitX=1;exitY=0.3333333333333333;exitDx=0;exitDy=0;exitPerimeter=0;entryX=0;entryY=0.5;entryDx=0;entryDy=0;endArrow=none;endFill=0;fillColor=#d5e8d4;strokeColor=#82b366;movable=0;resizable=0;rotatable=0;deletable=0;editable=0;connectable=0;" parent="1" source="pKxpa_zlyJSqr-g57ZnP-15" target="pKxpa_zlyJSqr-g57ZnP-34" edge="1">
          <mxGeometry relative="1" as="geometry" />
        </mxCell>
        <mxCell id="pKxpa_zlyJSqr-g57ZnP-11" style="edgeStyle=none;rounded=0;orthogonalLoop=1;jettySize=auto;html=1;exitX=1;exitY=0.3333333333333333;exitDx=0;exitDy=0;exitPerimeter=0;entryX=0;entryY=1;entryDx=0;entryDy=0;fontSize=10;endArrow=none;endFill=0;fillColor=#d5e8d4;strokeColor=#82b366;movable=0;resizable=0;rotatable=0;deletable=0;editable=0;connectable=0;" parent="1" source="pKxpa_zlyJSqr-g57ZnP-15" target="pKxpa_zlyJSqr-g57ZnP-26" edge="1">
          <mxGeometry relative="1" as="geometry" />
        </mxCell>
        <mxCell id="pKxpa_zlyJSqr-g57ZnP-12" style="edgeStyle=none;rounded=0;orthogonalLoop=1;jettySize=auto;html=1;exitX=1;exitY=0.3333333333333333;exitDx=0;exitDy=0;exitPerimeter=0;entryX=0;entryY=0.5;entryDx=0;entryDy=0;fontSize=12;endArrow=open;endFill=0;startSize=14;fillColor=#d5e8d4;strokeColor=#82b366;movable=0;resizable=0;rotatable=0;deletable=0;editable=0;connectable=0;" parent="1" source="pKxpa_zlyJSqr-g57ZnP-15" target="pKxpa_zlyJSqr-g57ZnP-37" edge="1">
          <mxGeometry relative="1" as="geometry" />
        </mxCell>
        <mxCell id="pKxpa_zlyJSqr-g57ZnP-13" style="edgeStyle=none;rounded=0;orthogonalLoop=1;jettySize=auto;html=1;exitX=1;exitY=0.3333333333333333;exitDx=0;exitDy=0;exitPerimeter=0;entryX=0;entryY=0.5;entryDx=0;entryDy=0;fontSize=12;endArrow=open;endFill=0;startSize=14;fillColor=#d5e8d4;strokeColor=#82b366;movable=0;resizable=0;rotatable=0;deletable=0;editable=0;connectable=0;" parent="1" source="pKxpa_zlyJSqr-g57ZnP-15" target="pKxpa_zlyJSqr-g57ZnP-38" edge="1">
          <mxGeometry relative="1" as="geometry" />
        </mxCell>
        <mxCell id="pKxpa_zlyJSqr-g57ZnP-14" style="edgeStyle=none;rounded=0;orthogonalLoop=1;jettySize=auto;html=1;exitX=1;exitY=0.3333333333333333;exitDx=0;exitDy=0;exitPerimeter=0;entryX=0;entryY=0.5;entryDx=0;entryDy=0;strokeColor=#82b366;fontSize=12;endArrow=open;endFill=0;startSize=14;fillColor=#d5e8d4;movable=0;resizable=0;rotatable=0;deletable=0;editable=0;connectable=0;" parent="1" source="pKxpa_zlyJSqr-g57ZnP-15" target="pKxpa_zlyJSqr-g57ZnP-26" edge="1">
          <mxGeometry relative="1" as="geometry" />
        </mxCell>
        <mxCell id="pKxpa_zlyJSqr-g57ZnP-15" value="Konselor" style="shape=umlActor;verticalLabelPosition=bottom;verticalAlign=top;html=1;outlineConnect=0;fillColor=#d5e8d4;strokeColor=#82b366;strokeWidth=2;movable=0;resizable=0;rotatable=0;deletable=0;editable=0;connectable=0;" parent="1" vertex="1">
          <mxGeometry x="140" y="300" width="30" height="60" as="geometry" />
        </mxCell>
        <mxCell id="pKxpa_zlyJSqr-g57ZnP-16" style="edgeStyle=none;rounded=0;orthogonalLoop=1;jettySize=auto;html=1;exitX=0;exitY=0.3333333333333333;exitDx=0;exitDy=0;exitPerimeter=0;entryX=1;entryY=0.5;entryDx=0;entryDy=0;endArrow=none;endFill=0;fillColor=#dae8fc;strokeColor=#6c8ebf;movable=0;resizable=0;rotatable=0;deletable=0;editable=0;connectable=0;" parent="1" source="pKxpa_zlyJSqr-g57ZnP-24" target="pKxpa_zlyJSqr-g57ZnP-26" edge="1">
          <mxGeometry relative="1" as="geometry" />
        </mxCell>
        <mxCell id="pKxpa_zlyJSqr-g57ZnP-17" style="edgeStyle=none;rounded=0;orthogonalLoop=1;jettySize=auto;html=1;exitX=0;exitY=0.3333333333333333;exitDx=0;exitDy=0;exitPerimeter=0;entryX=1;entryY=0;entryDx=0;entryDy=0;endArrow=none;endFill=0;fillColor=#dae8fc;strokeColor=#6c8ebf;movable=0;resizable=0;rotatable=0;deletable=0;editable=0;connectable=0;" parent="1" source="pKxpa_zlyJSqr-g57ZnP-24" target="pKxpa_zlyJSqr-g57ZnP-33" edge="1">
          <mxGeometry relative="1" as="geometry" />
        </mxCell>
        <mxCell id="pKxpa_zlyJSqr-g57ZnP-18" style="edgeStyle=none;rounded=0;orthogonalLoop=1;jettySize=auto;html=1;exitX=0;exitY=0.3333333333333333;exitDx=0;exitDy=0;exitPerimeter=0;entryX=1;entryY=0;entryDx=0;entryDy=0;endArrow=none;endFill=0;fillColor=#dae8fc;strokeColor=#6c8ebf;movable=0;resizable=0;rotatable=0;deletable=0;editable=0;connectable=0;" parent="1" source="pKxpa_zlyJSqr-g57ZnP-24" target="pKxpa_zlyJSqr-g57ZnP-27" edge="1">
          <mxGeometry relative="1" as="geometry" />
        </mxCell>
        <mxCell id="pKxpa_zlyJSqr-g57ZnP-19" style="edgeStyle=none;rounded=0;orthogonalLoop=1;jettySize=auto;html=1;exitX=0;exitY=0.3333333333333333;exitDx=0;exitDy=0;exitPerimeter=0;endArrow=none;endFill=0;fillColor=#dae8fc;strokeColor=#6c8ebf;movable=0;resizable=0;rotatable=0;deletable=0;editable=0;connectable=0;" parent="1" source="pKxpa_zlyJSqr-g57ZnP-24" target="pKxpa_zlyJSqr-g57ZnP-30" edge="1">
          <mxGeometry relative="1" as="geometry" />
        </mxCell>
        <mxCell id="pKxpa_zlyJSqr-g57ZnP-20" style="rounded=0;orthogonalLoop=1;jettySize=auto;html=1;exitX=0;exitY=0.3333333333333333;exitDx=0;exitDy=0;exitPerimeter=0;entryX=1;entryY=0.5;entryDx=0;entryDy=0;endArrow=none;endFill=0;fillColor=#dae8fc;strokeColor=#6c8ebf;movable=0;resizable=0;rotatable=0;deletable=0;editable=0;connectable=0;" parent="1" source="pKxpa_zlyJSqr-g57ZnP-24" target="pKxpa_zlyJSqr-g57ZnP-37" edge="1">
          <mxGeometry relative="1" as="geometry" />
        </mxCell>
        <mxCell id="pKxpa_zlyJSqr-g57ZnP-21" style="edgeStyle=none;rounded=0;orthogonalLoop=1;jettySize=auto;html=1;exitX=0;exitY=0.3333333333333333;exitDx=0;exitDy=0;exitPerimeter=0;entryX=1;entryY=0.5;entryDx=0;entryDy=0;endArrow=none;endFill=0;fillColor=#dae8fc;strokeColor=#6c8ebf;movable=0;resizable=0;rotatable=0;deletable=0;editable=0;connectable=0;" parent="1" source="pKxpa_zlyJSqr-g57ZnP-24" target="pKxpa_zlyJSqr-g57ZnP-38" edge="1">
          <mxGeometry relative="1" as="geometry" />
        </mxCell>
        <mxCell id="pKxpa_zlyJSqr-g57ZnP-22" style="edgeStyle=none;rounded=0;orthogonalLoop=1;jettySize=auto;html=1;exitX=0;exitY=0.3333333333333333;exitDx=0;exitDy=0;exitPerimeter=0;entryX=1;entryY=0.5;entryDx=0;entryDy=0;endArrow=none;endFill=0;fillColor=#dae8fc;strokeColor=#6c8ebf;movable=0;resizable=0;rotatable=0;deletable=0;editable=0;connectable=0;" parent="1" source="pKxpa_zlyJSqr-g57ZnP-24" target="pKxpa_zlyJSqr-g57ZnP-41" edge="1">
          <mxGeometry relative="1" as="geometry" />
        </mxCell>
        <mxCell id="pKxpa_zlyJSqr-g57ZnP-23" style="edgeStyle=none;rounded=0;orthogonalLoop=1;jettySize=auto;html=1;exitX=0;exitY=0.3333333333333333;exitDx=0;exitDy=0;exitPerimeter=0;entryX=1;entryY=0.5;entryDx=0;entryDy=0;fontSize=10;endArrow=none;endFill=0;fillColor=#dae8fc;strokeColor=#6c8ebf;movable=0;resizable=0;rotatable=0;deletable=0;editable=0;connectable=0;" parent="1" source="pKxpa_zlyJSqr-g57ZnP-24" target="pKxpa_zlyJSqr-g57ZnP-39" edge="1">
          <mxGeometry relative="1" as="geometry" />
        </mxCell>
        <mxCell id="pKxpa_zlyJSqr-g57ZnP-24" value="Admin" style="shape=umlActor;verticalLabelPosition=bottom;verticalAlign=top;html=1;outlineConnect=0;fillColor=#dae8fc;strokeColor=#6c8ebf;strokeWidth=2;movable=0;resizable=0;rotatable=0;deletable=0;editable=0;connectable=0;" parent="1" vertex="1">
          <mxGeometry x="650" y="260" width="30" height="60" as="geometry" />
        </mxCell>
        <mxCell id="pKxpa_zlyJSqr-g57ZnP-25" value="Mendaftar&lt;br style=&quot;font-size: 11px;&quot;&gt;Konseling" style="ellipse;whiteSpace=wrap;html=1;fontSize=11;movable=0;resizable=0;rotatable=0;deletable=0;editable=0;connectable=0;" parent="1" vertex="1">
          <mxGeometry x="220" y="110" width="76.25" height="40" as="geometry" />
        </mxCell>
        <mxCell id="pKxpa_zlyJSqr-g57ZnP-26" value="Melihat hasil konseling" style="ellipse;whiteSpace=wrap;html=1;fontSize=11;movable=0;resizable=0;rotatable=0;deletable=0;editable=0;connectable=0;" parent="1" vertex="1">
          <mxGeometry x="490" y="200" width="76.25" height="50" as="geometry" />
        </mxCell>
        <mxCell id="pKxpa_zlyJSqr-g57ZnP-27" value="Mengelola akun user" style="ellipse;whiteSpace=wrap;html=1;rotation=0;fontSize=11;movable=0;resizable=0;rotatable=0;deletable=0;editable=0;connectable=0;" parent="1" vertex="1">
          <mxGeometry x="540" y="410" width="69.51" height="45.77" as="geometry" />
        </mxCell>
        <mxCell id="pKxpa_zlyJSqr-g57ZnP-28" style="edgeStyle=none;rounded=0;orthogonalLoop=1;jettySize=auto;html=1;exitX=0.5;exitY=0;exitDx=0;exitDy=0;entryX=0;entryY=1;entryDx=0;entryDy=0;fontSize=10;endArrow=open;endFill=0;dashed=1;startSize=14;movable=0;resizable=0;rotatable=0;deletable=0;editable=0;connectable=0;" parent="1" source="pKxpa_zlyJSqr-g57ZnP-30" target="pKxpa_zlyJSqr-g57ZnP-39" edge="1">
          <mxGeometry relative="1" as="geometry" />
        </mxCell>
        <mxCell id="pKxpa_zlyJSqr-g57ZnP-29" value="&amp;lt;&amp;lt;extend&amp;gt;&amp;gt;" style="edgeLabel;html=1;align=center;verticalAlign=middle;resizable=0;points=[];fontSize=12;movable=0;rotatable=0;deletable=0;editable=0;connectable=0;" parent="pKxpa_zlyJSqr-g57ZnP-28" vertex="1" connectable="0">
          <mxGeometry x="0.3778" relative="1" as="geometry">
            <mxPoint x="-8" y="12" as="offset" />
          </mxGeometry>
        </mxCell>
        <mxCell id="pKxpa_zlyJSqr-g57ZnP-30" value="Menerima pendaftaran Konseling" style="ellipse;whiteSpace=wrap;html=1;rotation=0;fontSize=11;movable=0;resizable=0;rotatable=0;deletable=0;editable=0;connectable=0;" parent="1" vertex="1">
          <mxGeometry x="335" y="350" width="90" height="55" as="geometry" />
        </mxCell>
        <mxCell id="pKxpa_zlyJSqr-g57ZnP-31" style="edgeStyle=none;rounded=0;orthogonalLoop=1;jettySize=auto;html=1;exitX=0.5;exitY=0;exitDx=0;exitDy=0;entryX=1;entryY=1;entryDx=0;entryDy=0;fontSize=10;endArrow=open;endFill=0;dashed=1;movable=0;resizable=0;rotatable=0;deletable=0;editable=0;connectable=0;" parent="1" source="pKxpa_zlyJSqr-g57ZnP-33" target="pKxpa_zlyJSqr-g57ZnP-39" edge="1">
          <mxGeometry relative="1" as="geometry" />
        </mxCell>
        <mxCell id="pKxpa_zlyJSqr-g57ZnP-32" value="&amp;lt;&amp;lt;extend&amp;gt;&amp;gt;" style="edgeLabel;html=1;align=center;verticalAlign=middle;resizable=0;points=[];fontSize=12;rotation=0;movable=0;rotatable=0;deletable=0;editable=0;connectable=0;" parent="pKxpa_zlyJSqr-g57ZnP-31" vertex="1" connectable="0">
          <mxGeometry x="-0.5333" y="1" relative="1" as="geometry">
            <mxPoint x="-3" y="-4" as="offset" />
          </mxGeometry>
        </mxCell>
        <mxCell id="pKxpa_zlyJSqr-g57ZnP-33" value="Menolak Pendaftaran Konseling" style="ellipse;whiteSpace=wrap;html=1;rotation=0;fontSize=11;movable=0;resizable=0;rotatable=0;deletable=0;editable=0;connectable=0;" parent="1" vertex="1">
          <mxGeometry x="438.13" y="380" width="90" height="50" as="geometry" />
        </mxCell>
        <mxCell id="pKxpa_zlyJSqr-g57ZnP-34" value="Menginput hasil konseling" style="ellipse;whiteSpace=wrap;html=1;fontSize=11;movable=0;resizable=0;rotatable=0;deletable=0;editable=0;connectable=0;" parent="1" vertex="1">
          <mxGeometry x="230" y="335" width="80" height="50" as="geometry" />
        </mxCell>
        <mxCell id="pKxpa_zlyJSqr-g57ZnP-35" style="edgeStyle=none;rounded=0;orthogonalLoop=1;jettySize=auto;html=1;fontSize=10;endArrow=open;endFill=0;dashed=1;exitX=1;exitY=0;exitDx=0;exitDy=0;movable=0;resizable=0;rotatable=0;deletable=0;editable=0;connectable=0;" parent="1" source="pKxpa_zlyJSqr-g57ZnP-41" target="pKxpa_zlyJSqr-g57ZnP-26" edge="1">
          <mxGeometry relative="1" as="geometry" />
        </mxCell>
        <mxCell id="pKxpa_zlyJSqr-g57ZnP-36" value="&amp;lt;&amp;lt;include&amp;gt;&amp;gt;" style="edgeLabel;html=1;align=center;verticalAlign=middle;resizable=0;points=[];fontSize=12;movable=0;rotatable=0;deletable=0;editable=0;connectable=0;" parent="pKxpa_zlyJSqr-g57ZnP-35" vertex="1" connectable="0">
          <mxGeometry x="0.1399" y="-2" relative="1" as="geometry">
            <mxPoint x="23" y="2" as="offset" />
          </mxGeometry>
        </mxCell>
        <mxCell id="pKxpa_zlyJSqr-g57ZnP-37" value="Log In" style="ellipse;whiteSpace=wrap;html=1;fontSize=11;movable=0;resizable=0;rotatable=0;deletable=0;editable=0;connectable=0;" parent="1" vertex="1">
          <mxGeometry x="528.13" y="110" width="71.87" height="40" as="geometry" />
        </mxCell>
        <mxCell id="pKxpa_zlyJSqr-g57ZnP-38" value="Log Out" style="ellipse;whiteSpace=wrap;html=1;fontSize=11;movable=0;resizable=0;rotatable=0;deletable=0;editable=0;connectable=0;" parent="1" vertex="1">
          <mxGeometry x="500" y="155" width="70" height="40" as="geometry" />
        </mxCell>
        <mxCell id="pKxpa_zlyJSqr-g57ZnP-39" value="Melihat pendaftaran&lt;br style=&quot;font-size: 11px;&quot;&gt;konseling" style="ellipse;whiteSpace=wrap;html=1;fontSize=11;movable=0;resizable=0;rotatable=0;deletable=0;editable=0;connectable=0;" parent="1" vertex="1">
          <mxGeometry x="410" y="265" width="85" height="50" as="geometry" />
        </mxCell>
        <mxCell id="pKxpa_zlyJSqr-g57ZnP-40" value="&lt;b style=&quot;font-size: 13px;&quot;&gt;SI Konseling&lt;/b&gt;" style="text;html=1;strokeColor=none;fillColor=none;align=center;verticalAlign=middle;whiteSpace=wrap;rounded=0;fontSize=13;movable=0;resizable=0;rotatable=0;deletable=0;editable=0;connectable=0;" parent="1" vertex="1">
          <mxGeometry x="360" y="70" width="100" height="30" as="geometry" />
        </mxCell>
        <mxCell id="pKxpa_zlyJSqr-g57ZnP-41" value="Melihat riwayat konseling" style="ellipse;whiteSpace=wrap;html=1;fontSize=11;movable=0;resizable=0;rotatable=0;deletable=0;editable=0;connectable=0;" parent="1" vertex="1">
          <mxGeometry x="220" y="200" width="90" height="50" as="geometry" />
        </mxCell>
        <mxCell id="pKxpa_zlyJSqr-g57ZnP-42" value="" style="rounded=0;orthogonalLoop=1;jettySize=auto;html=1;exitX=1;exitY=0.3333333333333333;exitDx=0;exitDy=0;exitPerimeter=0;entryX=0;entryY=0.5;entryDx=0;entryDy=0;endArrow=none;endFill=0;fillColor=#d5e8d4;strokeColor=#82b366;movable=0;resizable=0;rotatable=0;deletable=0;editable=0;connectable=0;" parent="1" source="pKxpa_zlyJSqr-g57ZnP-15" target="pKxpa_zlyJSqr-g57ZnP-41" edge="1">
          <mxGeometry relative="1" as="geometry">
            <mxPoint x="170" y="357.5" as="sourcePoint" />
            <mxPoint x="528.1300000000001" y="130" as="targetPoint" />
          </mxGeometry>
        </mxCell>
      </root>
    </mxGraphModel>
  </diagram>
  <diagram id="LXK0KzW8uqMAqKO4qakL" name="ERD">
    <mxGraphModel dx="1723" dy="847" grid="1" gridSize="10" guides="1" tooltips="1" connect="1" arrows="1" fold="1" page="1" pageScale="1" pageWidth="850" pageHeight="1100" math="0" shadow="0">
      <root>
        <mxCell id="0" />
        <mxCell id="1" parent="0" />
        <mxCell id="xzlvHQ089rJoqQVE4Gx_-1" value="Konselor" style="rounded=0;whiteSpace=wrap;html=1;" parent="1" vertex="1">
          <mxGeometry x="505" y="510" width="100" height="50" as="geometry" />
        </mxCell>
        <mxCell id="xzlvHQ089rJoqQVE4Gx_-2" style="edgeStyle=none;rounded=0;orthogonalLoop=1;jettySize=auto;html=1;exitX=0;exitY=0.5;exitDx=0;exitDy=0;entryX=1;entryY=0.5;entryDx=0;entryDy=0;endArrow=none;endFill=0;" parent="1" source="xzlvHQ089rJoqQVE4Gx_-4" target="xzlvHQ089rJoqQVE4Gx_-52" edge="1">
          <mxGeometry relative="1" as="geometry" />
        </mxCell>
        <mxCell id="xzlvHQ089rJoqQVE4Gx_-3" style="edgeStyle=none;rounded=0;orthogonalLoop=1;jettySize=auto;html=1;exitX=0;exitY=0.5;exitDx=0;exitDy=0;entryX=1;entryY=0.675;entryDx=0;entryDy=0;entryPerimeter=0;endArrow=none;endFill=0;" parent="1" source="xzlvHQ089rJoqQVE4Gx_-4" target="xzlvHQ089rJoqQVE4Gx_-53" edge="1">
          <mxGeometry relative="1" as="geometry" />
        </mxCell>
        <mxCell id="xzlvHQ089rJoqQVE4Gx_-4" value="Konseli" style="rounded=0;whiteSpace=wrap;html=1;" parent="1" vertex="1">
          <mxGeometry x="200" y="380" width="90" height="50" as="geometry" />
        </mxCell>
        <mxCell id="xzlvHQ089rJoqQVE4Gx_-5" value="Admin" style="rounded=0;whiteSpace=wrap;html=1;" parent="1" vertex="1">
          <mxGeometry x="505" y="270" width="100" height="50" as="geometry" />
        </mxCell>
        <mxCell id="xzlvHQ089rJoqQVE4Gx_-6" value="Formulir daftar konseling" style="rounded=0;whiteSpace=wrap;html=1;" parent="1" vertex="1">
          <mxGeometry x="330" y="160" width="110" height="50" as="geometry" />
        </mxCell>
        <mxCell id="xzlvHQ089rJoqQVE4Gx_-7" value="Hasil Konseling" style="rounded=0;whiteSpace=wrap;html=1;" parent="1" vertex="1">
          <mxGeometry x="330" y="600" width="100" height="50" as="geometry" />
        </mxCell>
        <mxCell id="xzlvHQ089rJoqQVE4Gx_-8" value="Mendaftar Konseling" style="rhombus;whiteSpace=wrap;html=1;" parent="1" vertex="1">
          <mxGeometry x="330" y="260" width="110" height="70" as="geometry" />
        </mxCell>
        <mxCell id="xzlvHQ089rJoqQVE4Gx_-9" value="Melayani konseling" style="rhombus;whiteSpace=wrap;html=1;" parent="1" vertex="1">
          <mxGeometry x="330" y="500" width="100" height="70" as="geometry" />
        </mxCell>
        <mxCell id="xzlvHQ089rJoqQVE4Gx_-10" value="" style="edgeStyle=orthogonalEdgeStyle;fontSize=12;html=1;endArrow=none;startArrow=ERmandOne;rounded=0;exitX=0.5;exitY=1;exitDx=0;exitDy=0;entryX=0;entryY=0.5;entryDx=0;entryDy=0;endFill=0;" parent="1" source="xzlvHQ089rJoqQVE4Gx_-4" target="xzlvHQ089rJoqQVE4Gx_-9" edge="1">
          <mxGeometry width="100" height="100" relative="1" as="geometry">
            <mxPoint x="510" y="460" as="sourcePoint" />
            <mxPoint x="290" y="460" as="targetPoint" />
          </mxGeometry>
        </mxCell>
        <mxCell id="xzlvHQ089rJoqQVE4Gx_-11" value="" style="edgeStyle=orthogonalEdgeStyle;fontSize=12;html=1;endArrow=none;startArrow=ERoneToMany;rounded=0;exitX=0.5;exitY=0;exitDx=0;exitDy=0;entryX=0;entryY=0.5;entryDx=0;entryDy=0;endFill=0;startFill=0;" parent="1" source="xzlvHQ089rJoqQVE4Gx_-4" target="xzlvHQ089rJoqQVE4Gx_-8" edge="1">
          <mxGeometry width="100" height="100" relative="1" as="geometry">
            <mxPoint x="255" y="400" as="sourcePoint" />
            <mxPoint x="320" y="465" as="targetPoint" />
          </mxGeometry>
        </mxCell>
        <mxCell id="xzlvHQ089rJoqQVE4Gx_-12" value="" style="edgeStyle=orthogonalEdgeStyle;fontSize=12;html=1;endArrow=none;startArrow=ERmandOne;rounded=0;exitX=0;exitY=0.5;exitDx=0;exitDy=0;entryX=1;entryY=0.5;entryDx=0;entryDy=0;endFill=0;" parent="1" source="xzlvHQ089rJoqQVE4Gx_-5" target="xzlvHQ089rJoqQVE4Gx_-8" edge="1">
          <mxGeometry width="100" height="100" relative="1" as="geometry">
            <mxPoint x="255" y="350" as="sourcePoint" />
            <mxPoint x="690" y="295" as="targetPoint" />
          </mxGeometry>
        </mxCell>
        <mxCell id="xzlvHQ089rJoqQVE4Gx_-13" value="" style="edgeStyle=orthogonalEdgeStyle;fontSize=12;html=1;endArrow=none;startArrow=ERmandOne;rounded=0;exitX=0;exitY=0.5;exitDx=0;exitDy=0;entryX=1;entryY=0.5;entryDx=0;entryDy=0;endFill=0;" parent="1" source="xzlvHQ089rJoqQVE4Gx_-1" target="xzlvHQ089rJoqQVE4Gx_-9" edge="1">
          <mxGeometry width="100" height="100" relative="1" as="geometry">
            <mxPoint x="510" y="345" as="sourcePoint" />
            <mxPoint x="430" y="345" as="targetPoint" />
          </mxGeometry>
        </mxCell>
        <mxCell id="xzlvHQ089rJoqQVE4Gx_-14" value="" style="edgeStyle=orthogonalEdgeStyle;fontSize=12;html=1;endArrow=none;startArrow=ERmandOne;rounded=0;exitX=0.5;exitY=0;exitDx=0;exitDy=0;entryX=0.5;entryY=1;entryDx=0;entryDy=0;endFill=0;" parent="1" source="xzlvHQ089rJoqQVE4Gx_-7" target="xzlvHQ089rJoqQVE4Gx_-9" edge="1">
          <mxGeometry width="100" height="100" relative="1" as="geometry">
            <mxPoint x="510" y="505" as="sourcePoint" />
            <mxPoint x="410" y="505" as="targetPoint" />
          </mxGeometry>
        </mxCell>
        <mxCell id="xzlvHQ089rJoqQVE4Gx_-15" value="Memberi formulir konseling" style="rhombus;whiteSpace=wrap;html=1;" parent="1" vertex="1">
          <mxGeometry x="485" y="370" width="140" height="90" as="geometry" />
        </mxCell>
        <mxCell id="xzlvHQ089rJoqQVE4Gx_-16" value="" style="edgeStyle=orthogonalEdgeStyle;fontSize=12;html=1;endArrow=none;startArrow=ERmandOne;rounded=0;exitX=0.5;exitY=1;exitDx=0;exitDy=0;entryX=0.5;entryY=0;entryDx=0;entryDy=0;endFill=0;" parent="1" source="xzlvHQ089rJoqQVE4Gx_-5" target="xzlvHQ089rJoqQVE4Gx_-15" edge="1">
          <mxGeometry width="100" height="100" relative="1" as="geometry">
            <mxPoint x="510" y="305" as="sourcePoint" />
            <mxPoint x="450" y="305" as="targetPoint" />
          </mxGeometry>
        </mxCell>
        <mxCell id="xzlvHQ089rJoqQVE4Gx_-17" value="" style="edgeStyle=orthogonalEdgeStyle;fontSize=12;html=1;endArrow=none;startArrow=ERoneToMany;rounded=0;exitX=0.5;exitY=0;exitDx=0;exitDy=0;entryX=0.5;entryY=1;entryDx=0;entryDy=0;endFill=0;startFill=0;" parent="1" source="xzlvHQ089rJoqQVE4Gx_-1" target="xzlvHQ089rJoqQVE4Gx_-15" edge="1">
          <mxGeometry width="100" height="100" relative="1" as="geometry">
            <mxPoint x="565" y="330" as="sourcePoint" />
            <mxPoint x="565" y="380" as="targetPoint" />
          </mxGeometry>
        </mxCell>
        <mxCell id="xzlvHQ089rJoqQVE4Gx_-18" value="Nomor" style="ellipse;whiteSpace=wrap;html=1;fontStyle=4" parent="1" vertex="1">
          <mxGeometry x="180" y="160" width="72.5" height="50" as="geometry" />
        </mxCell>
        <mxCell id="xzlvHQ089rJoqQVE4Gx_-19" value="Nomor" style="ellipse;whiteSpace=wrap;html=1;fontStyle=4" parent="1" vertex="1">
          <mxGeometry x="177.5" y="650" width="72.5" height="50" as="geometry" />
        </mxCell>
        <mxCell id="xzlvHQ089rJoqQVE4Gx_-20" value="Jadwal" style="ellipse;whiteSpace=wrap;html=1;" parent="1" vertex="1">
          <mxGeometry x="240" y="85" width="75" height="50" as="geometry" />
        </mxCell>
        <mxCell id="xzlvHQ089rJoqQVE4Gx_-21" value="Nama&lt;br&gt;konseli" style="ellipse;whiteSpace=wrap;html=1;" parent="1" vertex="1">
          <mxGeometry x="470" y="90" width="70" height="40" as="geometry" />
        </mxCell>
        <mxCell id="xzlvHQ089rJoqQVE4Gx_-22" value="Keluhan" style="ellipse;whiteSpace=wrap;html=1;" parent="1" vertex="1">
          <mxGeometry x="490" y="160" width="80" height="50" as="geometry" />
        </mxCell>
        <mxCell id="xzlvHQ089rJoqQVE4Gx_-23" value="" style="endArrow=none;html=1;rounded=0;exitX=1;exitY=0.5;exitDx=0;exitDy=0;entryX=0;entryY=0.5;entryDx=0;entryDy=0;" parent="1" source="xzlvHQ089rJoqQVE4Gx_-18" target="xzlvHQ089rJoqQVE4Gx_-6" edge="1">
          <mxGeometry width="50" height="50" relative="1" as="geometry">
            <mxPoint x="220" y="270" as="sourcePoint" />
            <mxPoint x="270" y="220" as="targetPoint" />
          </mxGeometry>
        </mxCell>
        <mxCell id="xzlvHQ089rJoqQVE4Gx_-24" value="" style="endArrow=none;html=1;rounded=0;exitX=1;exitY=1;exitDx=0;exitDy=0;entryX=0;entryY=0;entryDx=0;entryDy=0;" parent="1" source="xzlvHQ089rJoqQVE4Gx_-20" target="xzlvHQ089rJoqQVE4Gx_-6" edge="1">
          <mxGeometry width="50" height="50" relative="1" as="geometry">
            <mxPoint x="272.5" y="175" as="sourcePoint" />
            <mxPoint x="340" y="195" as="targetPoint" />
          </mxGeometry>
        </mxCell>
        <mxCell id="xzlvHQ089rJoqQVE4Gx_-25" value="" style="endArrow=none;html=1;rounded=0;exitX=0;exitY=1;exitDx=0;exitDy=0;entryX=1;entryY=0;entryDx=0;entryDy=0;" parent="1" source="xzlvHQ089rJoqQVE4Gx_-21" edge="1" target="xzlvHQ089rJoqQVE4Gx_-6">
          <mxGeometry width="50" height="50" relative="1" as="geometry">
            <mxPoint x="395" y="110" as="sourcePoint" />
            <mxPoint x="385" y="160" as="targetPoint" />
          </mxGeometry>
        </mxCell>
        <mxCell id="xzlvHQ089rJoqQVE4Gx_-26" value="" style="endArrow=none;html=1;rounded=0;exitX=0;exitY=0.5;exitDx=0;exitDy=0;entryX=1;entryY=0.5;entryDx=0;entryDy=0;" parent="1" source="xzlvHQ089rJoqQVE4Gx_-22" target="xzlvHQ089rJoqQVE4Gx_-6" edge="1">
          <mxGeometry width="50" height="50" relative="1" as="geometry">
            <mxPoint x="493.1801948466052" y="112.6776695296636" as="sourcePoint" />
            <mxPoint x="450" y="170" as="targetPoint" />
          </mxGeometry>
        </mxCell>
        <mxCell id="xzlvHQ089rJoqQVE4Gx_-27" value="No Pegawai" style="ellipse;whiteSpace=wrap;html=1;fontStyle=4" parent="1" vertex="1">
          <mxGeometry x="650" y="200" width="80" height="50" as="geometry" />
        </mxCell>
        <mxCell id="xzlvHQ089rJoqQVE4Gx_-28" value="Nama" style="ellipse;whiteSpace=wrap;html=1;" parent="1" vertex="1">
          <mxGeometry x="690" y="270" width="70" height="50" as="geometry" />
        </mxCell>
        <mxCell id="xzlvHQ089rJoqQVE4Gx_-29" value="Email" style="ellipse;whiteSpace=wrap;html=1;" parent="1" vertex="1">
          <mxGeometry x="640" y="330" width="80" height="50" as="geometry" />
        </mxCell>
        <mxCell id="xzlvHQ089rJoqQVE4Gx_-30" value="" style="endArrow=none;html=1;rounded=0;exitX=0;exitY=0.5;exitDx=0;exitDy=0;entryX=1;entryY=0;entryDx=0;entryDy=0;" parent="1" source="xzlvHQ089rJoqQVE4Gx_-27" target="xzlvHQ089rJoqQVE4Gx_-5" edge="1">
          <mxGeometry width="50" height="50" relative="1" as="geometry">
            <mxPoint x="510" y="195" as="sourcePoint" />
            <mxPoint x="450" y="195" as="targetPoint" />
          </mxGeometry>
        </mxCell>
        <mxCell id="xzlvHQ089rJoqQVE4Gx_-31" value="" style="endArrow=none;html=1;rounded=0;exitX=0;exitY=0.5;exitDx=0;exitDy=0;entryX=1;entryY=0.5;entryDx=0;entryDy=0;" parent="1" source="xzlvHQ089rJoqQVE4Gx_-28" target="xzlvHQ089rJoqQVE4Gx_-5" edge="1">
          <mxGeometry width="50" height="50" relative="1" as="geometry">
            <mxPoint x="660" y="240" as="sourcePoint" />
            <mxPoint x="615" y="280" as="targetPoint" />
          </mxGeometry>
        </mxCell>
        <mxCell id="xzlvHQ089rJoqQVE4Gx_-32" value="" style="endArrow=none;html=1;rounded=0;exitX=0;exitY=0.5;exitDx=0;exitDy=0;entryX=1;entryY=1;entryDx=0;entryDy=0;" parent="1" source="xzlvHQ089rJoqQVE4Gx_-29" target="xzlvHQ089rJoqQVE4Gx_-5" edge="1">
          <mxGeometry width="50" height="50" relative="1" as="geometry">
            <mxPoint x="660" y="240" as="sourcePoint" />
            <mxPoint x="615" y="280" as="targetPoint" />
          </mxGeometry>
        </mxCell>
        <mxCell id="xzlvHQ089rJoqQVE4Gx_-33" value="NIM" style="ellipse;whiteSpace=wrap;html=1;fontStyle=4" parent="1" vertex="1">
          <mxGeometry x="70" y="300" width="80" height="50" as="geometry" />
        </mxCell>
        <mxCell id="xzlvHQ089rJoqQVE4Gx_-34" value="Jurusan" style="ellipse;whiteSpace=wrap;html=1;" parent="1" vertex="1">
          <mxGeometry x="40" y="420" width="80" height="50" as="geometry" />
        </mxCell>
        <mxCell id="xzlvHQ089rJoqQVE4Gx_-35" value="" style="endArrow=none;html=1;rounded=0;exitX=1;exitY=0.5;exitDx=0;exitDy=0;entryX=0;entryY=0.5;entryDx=0;entryDy=0;" parent="1" source="xzlvHQ089rJoqQVE4Gx_-33" target="xzlvHQ089rJoqQVE4Gx_-4" edge="1">
          <mxGeometry width="50" height="50" relative="1" as="geometry">
            <mxPoint x="262.5" y="195" as="sourcePoint" />
            <mxPoint x="340" y="195" as="targetPoint" />
          </mxGeometry>
        </mxCell>
        <mxCell id="xzlvHQ089rJoqQVE4Gx_-36" value="" style="endArrow=none;html=1;rounded=0;exitX=1;exitY=0.5;exitDx=0;exitDy=0;entryX=0;entryY=0.5;entryDx=0;entryDy=0;" parent="1" source="xzlvHQ089rJoqQVE4Gx_-34" target="xzlvHQ089rJoqQVE4Gx_-4" edge="1">
          <mxGeometry width="50" height="50" relative="1" as="geometry">
            <mxPoint x="110" y="405" as="sourcePoint" />
            <mxPoint x="210" y="415" as="targetPoint" />
          </mxGeometry>
        </mxCell>
        <mxCell id="xzlvHQ089rJoqQVE4Gx_-37" value="Hasil" style="ellipse;whiteSpace=wrap;html=1;" parent="1" vertex="1">
          <mxGeometry x="450" y="700" width="80" height="50" as="geometry" />
        </mxCell>
        <mxCell id="xzlvHQ089rJoqQVE4Gx_-38" value="Nama Konselor" style="ellipse;whiteSpace=wrap;html=1;" parent="1" vertex="1">
          <mxGeometry x="280" y="740" width="80" height="50" as="geometry" />
        </mxCell>
        <mxCell id="xzlvHQ089rJoqQVE4Gx_-39" value="Nama Konseli" style="ellipse;whiteSpace=wrap;html=1;" parent="1" vertex="1">
          <mxGeometry x="380" y="740" width="80" height="55" as="geometry" />
        </mxCell>
        <mxCell id="xzlvHQ089rJoqQVE4Gx_-40" value="" style="endArrow=none;html=1;rounded=0;exitX=1;exitY=0;exitDx=0;exitDy=0;entryX=0.5;entryY=1;entryDx=0;entryDy=0;" parent="1" source="xzlvHQ089rJoqQVE4Gx_-19" target="xzlvHQ089rJoqQVE4Gx_-7" edge="1">
          <mxGeometry width="50" height="50" relative="1" as="geometry">
            <mxPoint x="160" y="475" as="sourcePoint" />
            <mxPoint x="210" y="415" as="targetPoint" />
          </mxGeometry>
        </mxCell>
        <mxCell id="xzlvHQ089rJoqQVE4Gx_-41" value="" style="endArrow=none;html=1;rounded=0;entryX=0.5;entryY=1;entryDx=0;entryDy=0;" parent="1" source="xzlvHQ089rJoqQVE4Gx_-38" target="xzlvHQ089rJoqQVE4Gx_-7" edge="1">
          <mxGeometry width="50" height="50" relative="1" as="geometry">
            <mxPoint x="253.75" y="680" as="sourcePoint" />
            <mxPoint x="390" y="650" as="targetPoint" />
          </mxGeometry>
        </mxCell>
        <mxCell id="xzlvHQ089rJoqQVE4Gx_-42" value="" style="endArrow=none;html=1;rounded=0;exitX=0.5;exitY=0;exitDx=0;exitDy=0;entryX=0.5;entryY=1;entryDx=0;entryDy=0;" parent="1" source="xzlvHQ089rJoqQVE4Gx_-39" target="xzlvHQ089rJoqQVE4Gx_-7" edge="1">
          <mxGeometry width="50" height="50" relative="1" as="geometry">
            <mxPoint x="340" y="740" as="sourcePoint" />
            <mxPoint x="390" y="650" as="targetPoint" />
          </mxGeometry>
        </mxCell>
        <mxCell id="xzlvHQ089rJoqQVE4Gx_-43" value="" style="endArrow=none;html=1;rounded=0;" parent="1" source="xzlvHQ089rJoqQVE4Gx_-37" edge="1">
          <mxGeometry width="50" height="50" relative="1" as="geometry">
            <mxPoint x="445" y="735" as="sourcePoint" />
            <mxPoint x="380" y="650" as="targetPoint" />
          </mxGeometry>
        </mxCell>
        <mxCell id="xzlvHQ089rJoqQVE4Gx_-44" value="No Pegawai" style="ellipse;whiteSpace=wrap;html=1;fontStyle=4" parent="1" vertex="1">
          <mxGeometry x="670" y="450" width="80" height="50" as="geometry" />
        </mxCell>
        <mxCell id="xzlvHQ089rJoqQVE4Gx_-45" value="Nama" style="ellipse;whiteSpace=wrap;html=1;" parent="1" vertex="1">
          <mxGeometry x="740" y="510" width="70" height="50" as="geometry" />
        </mxCell>
        <mxCell id="xzlvHQ089rJoqQVE4Gx_-46" value="Email" style="ellipse;whiteSpace=wrap;html=1;" parent="1" vertex="1">
          <mxGeometry x="670" y="580" width="80" height="50" as="geometry" />
        </mxCell>
        <mxCell id="xzlvHQ089rJoqQVE4Gx_-47" value="" style="endArrow=none;html=1;rounded=0;exitX=0;exitY=0.5;exitDx=0;exitDy=0;entryX=1;entryY=0.5;entryDx=0;entryDy=0;" parent="1" source="xzlvHQ089rJoqQVE4Gx_-44" target="xzlvHQ089rJoqQVE4Gx_-1" edge="1">
          <mxGeometry width="50" height="50" relative="1" as="geometry">
            <mxPoint x="532.5" y="455" as="sourcePoint" />
            <mxPoint x="602.5" y="545" as="targetPoint" />
          </mxGeometry>
        </mxCell>
        <mxCell id="xzlvHQ089rJoqQVE4Gx_-48" value="" style="endArrow=none;html=1;rounded=0;exitX=0;exitY=0.5;exitDx=0;exitDy=0;entryX=1;entryY=0.5;entryDx=0;entryDy=0;" parent="1" source="xzlvHQ089rJoqQVE4Gx_-45" target="xzlvHQ089rJoqQVE4Gx_-1" edge="1">
          <mxGeometry width="50" height="50" relative="1" as="geometry">
            <mxPoint x="682.5" y="500" as="sourcePoint" />
            <mxPoint x="650" y="540" as="targetPoint" />
          </mxGeometry>
        </mxCell>
        <mxCell id="xzlvHQ089rJoqQVE4Gx_-49" value="" style="endArrow=none;html=1;rounded=0;exitX=0;exitY=0.5;exitDx=0;exitDy=0;entryX=1;entryY=0.5;entryDx=0;entryDy=0;" parent="1" source="xzlvHQ089rJoqQVE4Gx_-46" target="xzlvHQ089rJoqQVE4Gx_-1" edge="1">
          <mxGeometry width="50" height="50" relative="1" as="geometry">
            <mxPoint x="682.5" y="500" as="sourcePoint" />
            <mxPoint x="650" y="570" as="targetPoint" />
          </mxGeometry>
        </mxCell>
        <mxCell id="xzlvHQ089rJoqQVE4Gx_-50" style="rounded=0;orthogonalLoop=1;jettySize=auto;html=1;exitX=0.5;exitY=1;exitDx=0;exitDy=0;entryX=0.5;entryY=0;entryDx=0;entryDy=0;endArrow=none;endFill=0;" parent="1" source="xzlvHQ089rJoqQVE4Gx_-51" target="xzlvHQ089rJoqQVE4Gx_-6" edge="1">
          <mxGeometry relative="1" as="geometry" />
        </mxCell>
        <mxCell id="xzlvHQ089rJoqQVE4Gx_-51" value="Lokasi" style="ellipse;whiteSpace=wrap;html=1;" parent="1" vertex="1">
          <mxGeometry x="345" y="80" width="80" height="40" as="geometry" />
        </mxCell>
        <mxCell id="xzlvHQ089rJoqQVE4Gx_-52" value="Namai" style="ellipse;whiteSpace=wrap;html=1;" parent="1" vertex="1">
          <mxGeometry x="45" y="360" width="70" height="40" as="geometry" />
        </mxCell>
        <mxCell id="xzlvHQ089rJoqQVE4Gx_-53" value="Email" style="ellipse;whiteSpace=wrap;html=1;" parent="1" vertex="1">
          <mxGeometry x="70" y="490" width="70" height="40" as="geometry" />
        </mxCell>
        <mxCell id="xzlvHQ089rJoqQVE4Gx_-54" style="edgeStyle=none;rounded=0;orthogonalLoop=1;jettySize=auto;html=1;exitX=0;exitY=0.5;exitDx=0;exitDy=0;entryX=0.5;entryY=1;entryDx=0;entryDy=0;endArrow=none;endFill=0;" parent="1" source="xzlvHQ089rJoqQVE4Gx_-55" target="xzlvHQ089rJoqQVE4Gx_-7" edge="1">
          <mxGeometry relative="1" as="geometry" />
        </mxCell>
        <mxCell id="xzlvHQ089rJoqQVE4Gx_-55" value="Dokumentasi" style="ellipse;whiteSpace=wrap;html=1;" parent="1" vertex="1">
          <mxGeometry x="505" y="640" width="80" height="50" as="geometry" />
        </mxCell>
        <mxCell id="xzlvHQ089rJoqQVE4Gx_-56" value="" style="fontSize=12;html=1;endArrow=ERmandOne;rounded=0;entryX=0.5;entryY=1;entryDx=0;entryDy=0;exitX=0.5;exitY=0;exitDx=0;exitDy=0;" parent="1" source="xzlvHQ089rJoqQVE4Gx_-8" target="xzlvHQ089rJoqQVE4Gx_-6" edge="1">
          <mxGeometry width="100" height="100" relative="1" as="geometry">
            <mxPoint x="520" y="490" as="sourcePoint" />
            <mxPoint x="620" y="390" as="targetPoint" />
          </mxGeometry>
        </mxCell>
        <mxCell id="nYnr-wyxfRmwh7kjKm2I-2" style="rounded=0;orthogonalLoop=1;jettySize=auto;html=1;exitX=1;exitY=0;exitDx=0;exitDy=0;entryX=0.5;entryY=1;entryDx=0;entryDy=0;endArrow=none;endFill=0;" edge="1" parent="1" source="nYnr-wyxfRmwh7kjKm2I-1" target="xzlvHQ089rJoqQVE4Gx_-7">
          <mxGeometry relative="1" as="geometry" />
        </mxCell>
        <mxCell id="nYnr-wyxfRmwh7kjKm2I-1" value="Jadwal" style="ellipse;whiteSpace=wrap;html=1;" vertex="1" parent="1">
          <mxGeometry x="215" y="700" width="75" height="50" as="geometry" />
        </mxCell>
      </root>
    </mxGraphModel>
  </diagram>
  <diagram id="1ubMIzFWOJIoX-TdZd7N" name="Package Diagram Use Case">
    <mxGraphModel dx="1437" dy="726" grid="1" gridSize="10" guides="1" tooltips="1" connect="1" arrows="1" fold="1" page="1" pageScale="1" pageWidth="850" pageHeight="1100" math="0" shadow="0">
      <root>
        <mxCell id="0" />
        <mxCell id="1" parent="0" />
        <mxCell id="OlPJzHuCdAyL5V1UN7-a-1" value="SI Layanan Konseling&lt;br&gt;UPT Karir dan Konseling" style="shape=folder;fontStyle=1;tabWidth=160;tabHeight=50;tabPosition=left;html=1;boundedLbl=1;labelInHeader=1;container=1;collapsible=0;" parent="1" vertex="1">
          <mxGeometry x="80" y="20" width="660" height="730" as="geometry" />
        </mxCell>
        <mxCell id="OlPJzHuCdAyL5V1UN7-a-2" value="&amp;nbsp;" style="html=1;strokeColor=none;resizeWidth=1;resizeHeight=1;fillColor=none;part=1;connectable=0;allowArrows=0;deletable=0;" parent="OlPJzHuCdAyL5V1UN7-a-1" vertex="1">
          <mxGeometry width="682.2999260502777" height="511" relative="1" as="geometry">
            <mxPoint y="30" as="offset" />
          </mxGeometry>
        </mxCell>
        <mxCell id="OlPJzHuCdAyL5V1UN7-a-27" value="Kelola Konseling" style="shape=folder;fontStyle=1;tabWidth=130;tabHeight=30;tabPosition=left;html=1;boundedLbl=1;labelInHeader=1;container=1;collapsible=0;" parent="OlPJzHuCdAyL5V1UN7-a-1" vertex="1">
          <mxGeometry x="344.998164139032" y="290" width="225.09251868514622" height="150" as="geometry" />
        </mxCell>
        <mxCell id="OlPJzHuCdAyL5V1UN7-a-28" value="&amp;nbsp;" style="html=1;strokeColor=none;resizeWidth=1;resizeHeight=1;fillColor=none;part=1;connectable=0;allowArrows=0;deletable=0;" parent="OlPJzHuCdAyL5V1UN7-a-27" vertex="1">
          <mxGeometry width="225.09251868514616" height="104.99999999999999" relative="1" as="geometry">
            <mxPoint y="30" as="offset" />
          </mxGeometry>
        </mxCell>
        <mxCell id="OlPJzHuCdAyL5V1UN7-a-11" value="Menerima konseling" style="ellipse;whiteSpace=wrap;html=1;" parent="OlPJzHuCdAyL5V1UN7-a-27" vertex="1">
          <mxGeometry x="28.13656483564327" y="93.76666666666667" width="87.09204702126114" height="39.56666666666666" as="geometry" />
        </mxCell>
        <mxCell id="OlPJzHuCdAyL5V1UN7-a-12" value="Menolak konseling" style="ellipse;whiteSpace=wrap;html=1;" parent="OlPJzHuCdAyL5V1UN7-a-27" vertex="1">
          <mxGeometry x="28.145943690588485" y="41.66666666666667" width="87.08266816631593" height="41.66666666666667" as="geometry" />
        </mxCell>
        <mxCell id="OlPJzHuCdAyL5V1UN7-a-15" value="Melihat pendaftarran" style="ellipse;whiteSpace=wrap;html=1;fontSize=11;movable=1;resizable=1;rotatable=1;deletable=1;editable=1;connectable=1;" parent="OlPJzHuCdAyL5V1UN7-a-27" vertex="1">
          <mxGeometry x="131.30484705686382" y="66.66785714285713" width="75.91827328480743" height="36.621428571428574" as="geometry" />
        </mxCell>
        <mxCell id="OlPJzHuCdAyL5V1UN7-a-3" value="Kelola User" style="shape=folder;fontStyle=1;tabWidth=110;tabHeight=30;tabPosition=left;html=1;boundedLbl=1;labelInHeader=1;container=1;collapsible=0;" parent="OlPJzHuCdAyL5V1UN7-a-1" vertex="1">
          <mxGeometry x="344.998164139032" y="80" width="225.09251868514622" height="150" as="geometry" />
        </mxCell>
        <mxCell id="OlPJzHuCdAyL5V1UN7-a-4" value="" style="html=1;strokeColor=none;resizeWidth=1;resizeHeight=1;fillColor=none;part=1;connectable=0;allowArrows=0;deletable=0;" parent="OlPJzHuCdAyL5V1UN7-a-3" vertex="1">
          <mxGeometry width="225.09251868514622" height="105" relative="1" as="geometry">
            <mxPoint y="30" as="offset" />
          </mxGeometry>
        </mxCell>
        <mxCell id="OlPJzHuCdAyL5V1UN7-a-5" value="Menambah akun user" style="ellipse;whiteSpace=wrap;html=1;" parent="OlPJzHuCdAyL5V1UN7-a-3" vertex="1">
          <mxGeometry x="17.107031420071113" y="34.81666666666666" width="76.96288368042957" height="40.44999999999999" as="geometry" />
        </mxCell>
        <mxCell id="OlPJzHuCdAyL5V1UN7-a-6" value="Mengedit akun user" style="ellipse;whiteSpace=wrap;html=1;" parent="OlPJzHuCdAyL5V1UN7-a-3" vertex="1">
          <mxGeometry x="17.107031420071113" y="95.83333333333334" width="67.8653943835716" height="42.125" as="geometry" />
        </mxCell>
        <mxCell id="OlPJzHuCdAyL5V1UN7-a-7" value="Melihat akun user" style="ellipse;whiteSpace=wrap;html=1;" parent="OlPJzHuCdAyL5V1UN7-a-3" vertex="1">
          <mxGeometry x="131.30396923300196" y="34.81666666666666" width="65.65198461650098" height="40.44999999999999" as="geometry" />
        </mxCell>
        <mxCell id="OlPJzHuCdAyL5V1UN7-a-8" value="Menghapus akun user" style="ellipse;whiteSpace=wrap;html=1;" parent="OlPJzHuCdAyL5V1UN7-a-3" vertex="1">
          <mxGeometry x="119.3084137580727" y="92.125" width="77.64754009143023" height="49.54166666666667" as="geometry" />
        </mxCell>
        <mxCell id="OlPJzHuCdAyL5V1UN7-a-9" value="Authentication" style="shape=folder;fontStyle=1;tabWidth=110;tabHeight=30;tabPosition=left;html=1;boundedLbl=1;labelInHeader=1;container=1;collapsible=0;" parent="OlPJzHuCdAyL5V1UN7-a-1" vertex="1">
          <mxGeometry x="79.99889267832523" y="510" width="229.8817212103621" height="150" as="geometry" />
        </mxCell>
        <mxCell id="OlPJzHuCdAyL5V1UN7-a-10" value="" style="html=1;strokeColor=none;resizeWidth=1;resizeHeight=1;fillColor=none;part=1;connectable=0;allowArrows=0;deletable=0;" parent="OlPJzHuCdAyL5V1UN7-a-9" vertex="1">
          <mxGeometry width="211.859196410654" height="104.99999999999997" relative="1" as="geometry">
            <mxPoint y="30" as="offset" />
          </mxGeometry>
        </mxCell>
        <mxCell id="OlPJzHuCdAyL5V1UN7-a-30" value="Login" style="ellipse;whiteSpace=wrap;html=1;" parent="OlPJzHuCdAyL5V1UN7-a-9" vertex="1">
          <mxGeometry x="26.48239955133175" y="42.158195161728734" width="76.1457261765959" height="45.72981788529491" as="geometry" />
        </mxCell>
        <mxCell id="OlPJzHuCdAyL5V1UN7-a-31" value="Logout" style="ellipse;whiteSpace=wrap;html=1;" parent="OlPJzHuCdAyL5V1UN7-a-9" vertex="1">
          <mxGeometry x="114.75706472243758" y="82.93014406088612" width="79.44719865399524" height="47.54824680619734" as="geometry" />
        </mxCell>
        <mxCell id="OlPJzHuCdAyL5V1UN7-a-41" value="Akses Hasil Konseling" style="shape=folder;fontStyle=1;tabWidth=150;tabHeight=30;tabPosition=left;html=1;boundedLbl=1;labelInHeader=1;container=1;collapsible=0;" parent="OlPJzHuCdAyL5V1UN7-a-1" vertex="1">
          <mxGeometry x="344.998164139032" y="510" width="225.09251868514622" height="150" as="geometry" />
        </mxCell>
        <mxCell id="OlPJzHuCdAyL5V1UN7-a-42" value="&amp;nbsp;" style="html=1;strokeColor=none;resizeWidth=1;resizeHeight=1;fillColor=none;part=1;connectable=0;allowArrows=0;deletable=0;" parent="OlPJzHuCdAyL5V1UN7-a-41" vertex="1">
          <mxGeometry width="225.09251868514627" height="105" relative="1" as="geometry">
            <mxPoint y="30" as="offset" />
          </mxGeometry>
        </mxCell>
        <mxCell id="OlPJzHuCdAyL5V1UN7-a-16" value="Melihat riwayat konseling" style="ellipse;whiteSpace=wrap;html=1;fontSize=11;movable=1;resizable=1;rotatable=1;deletable=1;editable=1;connectable=1;" parent="OlPJzHuCdAyL5V1UN7-a-41" vertex="1">
          <mxGeometry x="19.573262494360545" y="33.33333333333333" width="88.07968122462243" height="55.775000000000006" as="geometry" />
        </mxCell>
        <mxCell id="OlPJzHuCdAyL5V1UN7-a-17" value="Melihat hasil konseling" style="ellipse;whiteSpace=wrap;html=1;fontSize=11;movable=1;resizable=1;rotatable=1;deletable=1;editable=1;connectable=1;" parent="OlPJzHuCdAyL5V1UN7-a-41" vertex="1">
          <mxGeometry x="127.22620621334353" y="83.33333333333334" width="88.07968122462243" height="55.25833333333334" as="geometry" />
        </mxCell>
        <mxCell id="OlPJzHuCdAyL5V1UN7-a-34" value="Pasca Konseling" style="shape=folder;fontStyle=1;tabWidth=110;tabHeight=30;tabPosition=left;html=1;boundedLbl=1;labelInHeader=1;container=1;collapsible=0;" parent="OlPJzHuCdAyL5V1UN7-a-1" vertex="1">
          <mxGeometry x="79.99889267832525" y="290" width="229.8817212103621" height="150" as="geometry" />
        </mxCell>
        <mxCell id="OlPJzHuCdAyL5V1UN7-a-35" value="&amp;nbsp;" style="html=1;strokeColor=none;resizeWidth=1;resizeHeight=1;fillColor=none;part=1;connectable=0;allowArrows=0;deletable=0;" parent="OlPJzHuCdAyL5V1UN7-a-34" vertex="1">
          <mxGeometry width="229.88172121036206" height="105" relative="1" as="geometry">
            <mxPoint y="30" as="offset" />
          </mxGeometry>
        </mxCell>
        <mxCell id="OlPJzHuCdAyL5V1UN7-a-14" value="Menginput hasil konseling" style="ellipse;whiteSpace=wrap;html=1;" parent="OlPJzHuCdAyL5V1UN7-a-34" vertex="1">
          <mxGeometry x="57.473194437715655" y="50.00029929577474" width="100.4003744993549" height="61.91549295774649" as="geometry" />
        </mxCell>
        <mxCell id="OlPJzHuCdAyL5V1UN7-a-32" value="Pra Konseling" style="shape=folder;fontStyle=1;tabWidth=110;tabHeight=30;tabPosition=left;html=1;boundedLbl=1;labelInHeader=1;container=1;collapsible=0;" parent="OlPJzHuCdAyL5V1UN7-a-1" vertex="1">
          <mxGeometry x="79.99889267832523" y="80" width="229.8817212103621" height="150" as="geometry" />
        </mxCell>
        <mxCell id="OlPJzHuCdAyL5V1UN7-a-33" value="&amp;nbsp;" style="html=1;strokeColor=none;resizeWidth=1;resizeHeight=1;fillColor=none;part=1;connectable=0;allowArrows=0;deletable=0;" parent="OlPJzHuCdAyL5V1UN7-a-32" vertex="1">
          <mxGeometry width="229.88172121036212" height="105" relative="1" as="geometry">
            <mxPoint y="30" as="offset" />
          </mxGeometry>
        </mxCell>
        <mxCell id="OlPJzHuCdAyL5V1UN7-a-13" value="Mendaftar konseling" style="ellipse;whiteSpace=wrap;html=1;" parent="OlPJzHuCdAyL5V1UN7-a-32" vertex="1">
          <mxGeometry x="67.04883535302228" y="58.33333333333337" width="86.2056454538858" height="41.66666666666667" as="geometry" />
        </mxCell>
        <mxCell id="OlPJzHuCdAyL5V1UN7-a-39" style="rounded=0;orthogonalLoop=1;jettySize=auto;html=1;exitX=1;exitY=0.3333333333333333;exitDx=0;exitDy=0;exitPerimeter=0;entryX=0;entryY=0;entryDx=0;entryDy=90;entryPerimeter=0;fillColor=#f0a30a;strokeColor=#BD7000;endArrow=none;endFill=0;" parent="1" source="OlPJzHuCdAyL5V1UN7-a-24" target="OlPJzHuCdAyL5V1UN7-a-32" edge="1">
          <mxGeometry relative="1" as="geometry">
            <mxPoint x="160" y="180" as="targetPoint" />
          </mxGeometry>
        </mxCell>
        <mxCell id="HoketAjQcqH7nf9ZlIoo-5" style="rounded=0;orthogonalLoop=1;jettySize=auto;html=1;exitX=1;exitY=0.3333333333333333;exitDx=0;exitDy=0;exitPerimeter=0;entryX=0;entryY=0;entryDx=0;entryDy=68.4875;entryPerimeter=0;edgeStyle=orthogonalEdgeStyle;fillColor=#f0a30a;strokeColor=#BD7000;endArrow=none;endFill=0;" parent="1" source="OlPJzHuCdAyL5V1UN7-a-24" target="OlPJzHuCdAyL5V1UN7-a-9" edge="1">
          <mxGeometry relative="1" as="geometry">
            <Array as="points">
              <mxPoint x="130" y="190" />
              <mxPoint x="130" y="598" />
            </Array>
          </mxGeometry>
        </mxCell>
        <mxCell id="OlPJzHuCdAyL5V1UN7-a-24" value="Konseli" style="shape=umlActor;verticalLabelPosition=bottom;verticalAlign=top;html=1;outlineConnect=0;fillColor=#ffe6cc;strokeColor=#d79b00;strokeWidth=2;movable=1;resizable=1;rotatable=1;deletable=1;editable=1;connectable=1;" parent="1" vertex="1">
          <mxGeometry x="20" y="170" width="30" height="60" as="geometry" />
        </mxCell>
        <mxCell id="HoketAjQcqH7nf9ZlIoo-4" style="edgeStyle=none;rounded=0;orthogonalLoop=1;jettySize=auto;html=1;exitX=1;exitY=0.3333333333333333;exitDx=0;exitDy=0;exitPerimeter=0;entryX=0;entryY=0;entryDx=0;entryDy=90;entryPerimeter=0;fillColor=#60a917;strokeColor=#2D7600;endArrow=none;endFill=0;" parent="1" source="OlPJzHuCdAyL5V1UN7-a-25" target="OlPJzHuCdAyL5V1UN7-a-34" edge="1">
          <mxGeometry relative="1" as="geometry" />
        </mxCell>
        <mxCell id="HoketAjQcqH7nf9ZlIoo-6" style="edgeStyle=orthogonalEdgeStyle;rounded=0;orthogonalLoop=1;jettySize=auto;html=1;exitX=1;exitY=0.3333333333333333;exitDx=0;exitDy=0;exitPerimeter=0;entryX=0;entryY=0;entryDx=0;entryDy=106.975;entryPerimeter=0;fillColor=#60a917;strokeColor=#2D7600;endArrow=none;endFill=0;" parent="1" source="OlPJzHuCdAyL5V1UN7-a-25" target="OlPJzHuCdAyL5V1UN7-a-9" edge="1">
          <mxGeometry relative="1" as="geometry" />
        </mxCell>
        <mxCell id="OlPJzHuCdAyL5V1UN7-a-25" value="Konselor" style="shape=umlActor;verticalLabelPosition=bottom;verticalAlign=top;html=1;outlineConnect=0;fillColor=#d5e8d4;strokeColor=#82b366;strokeWidth=2;movable=1;resizable=1;rotatable=1;deletable=1;editable=1;connectable=1;" parent="1" vertex="1">
          <mxGeometry x="20" y="380" width="30" height="60" as="geometry" />
        </mxCell>
        <mxCell id="NACq_On86EKpfus0_wc2-1" style="edgeStyle=orthogonalEdgeStyle;rounded=0;orthogonalLoop=1;jettySize=auto;html=1;exitX=0;exitY=0.3333333333333333;exitDx=0;exitDy=0;exitPerimeter=0;entryX=0;entryY=0;entryDx=225.09251868514622;entryDy=90;entryPerimeter=0;fillColor=#1ba1e2;strokeColor=#006EAF;endArrow=none;endFill=0;" parent="1" source="OlPJzHuCdAyL5V1UN7-a-22" target="OlPJzHuCdAyL5V1UN7-a-3" edge="1">
          <mxGeometry relative="1" as="geometry">
            <Array as="points">
              <mxPoint x="710" y="400" />
              <mxPoint x="710" y="190" />
            </Array>
          </mxGeometry>
        </mxCell>
        <mxCell id="OlPJzHuCdAyL5V1UN7-a-22" value="Admin" style="shape=umlActor;verticalLabelPosition=bottom;verticalAlign=top;html=1;outlineConnect=0;fillColor=#dae8fc;strokeColor=#6c8ebf;strokeWidth=2;movable=1;resizable=1;rotatable=1;deletable=1;editable=1;connectable=1;" parent="1" vertex="1">
          <mxGeometry x="799.9994382022471" y="380" width="27.05056179775281" height="60" as="geometry" />
        </mxCell>
        <mxCell id="OlPJzHuCdAyL5V1UN7-a-23" style="edgeStyle=none;rounded=0;orthogonalLoop=1;jettySize=auto;html=1;exitX=0.25;exitY=0.1;exitDx=0;exitDy=0;exitPerimeter=0;endArrow=none;endFill=0;" parent="1" source="OlPJzHuCdAyL5V1UN7-a-22" target="OlPJzHuCdAyL5V1UN7-a-22" edge="1">
          <mxGeometry relative="1" as="geometry" />
        </mxCell>
        <mxCell id="HoketAjQcqH7nf9ZlIoo-2" style="rounded=0;orthogonalLoop=1;jettySize=auto;html=1;exitX=0;exitY=0.3333333333333333;exitDx=0;exitDy=0;exitPerimeter=0;entryX=0.5;entryY=1;entryDx=0;entryDy=0;entryPerimeter=0;edgeStyle=orthogonalEdgeStyle;fillColor=#1ba1e2;strokeColor=#006EAF;endArrow=none;endFill=0;" parent="1" source="OlPJzHuCdAyL5V1UN7-a-22" target="OlPJzHuCdAyL5V1UN7-a-9" edge="1">
          <mxGeometry relative="1" as="geometry">
            <Array as="points">
              <mxPoint x="710" y="400" />
              <mxPoint x="710" y="720" />
              <mxPoint x="275" y="720" />
            </Array>
          </mxGeometry>
        </mxCell>
        <mxCell id="HoketAjQcqH7nf9ZlIoo-1" style="rounded=0;orthogonalLoop=1;jettySize=auto;html=1;exitX=0;exitY=0.3333333333333333;exitDx=0;exitDy=0;exitPerimeter=0;entryX=0;entryY=0;entryDx=230;entryDy=105;entryPerimeter=0;edgeStyle=orthogonalEdgeStyle;fillColor=#1ba1e2;strokeColor=#006EAF;endArrow=none;endFill=0;" parent="1" source="OlPJzHuCdAyL5V1UN7-a-22" target="OlPJzHuCdAyL5V1UN7-a-41" edge="1">
          <mxGeometry relative="1" as="geometry">
            <Array as="points">
              <mxPoint x="710" y="400" />
              <mxPoint x="710" y="635" />
            </Array>
          </mxGeometry>
        </mxCell>
        <mxCell id="OlPJzHuCdAyL5V1UN7-a-37" style="rounded=0;orthogonalLoop=1;jettySize=auto;html=1;exitX=0;exitY=0.3333333333333333;exitDx=0;exitDy=0;exitPerimeter=0;entryX=0;entryY=0;entryDx=225.0925186851462;entryDy=90;entryPerimeter=0;fillColor=#1ba1e2;strokeColor=#006EAF;endArrow=none;endFill=0;" parent="1" source="OlPJzHuCdAyL5V1UN7-a-22" target="OlPJzHuCdAyL5V1UN7-a-27" edge="1">
          <mxGeometry relative="1" as="geometry" />
        </mxCell>
      </root>
    </mxGraphModel>
  </diagram>
  <diagram id="EqX09xT5D7_Bx6amtFrj" name="Package Diagram Class">
    <mxGraphModel dx="875" dy="442" grid="1" gridSize="10" guides="1" tooltips="1" connect="1" arrows="1" fold="1" page="1" pageScale="1" pageWidth="850" pageHeight="1100" math="0" shadow="0">
      <root>
        <mxCell id="0" />
        <mxCell id="1" parent="0" />
        <mxCell id="XUdCCkIB8lKNxsG4U0Wu-1" value="SI Layanan Konseling&lt;br&gt;UPT Karir dan Konseling" style="shape=folder;fontStyle=1;tabWidth=160;tabHeight=50;tabPosition=left;html=1;boundedLbl=1;labelInHeader=1;container=1;collapsible=0;" vertex="1" parent="1">
          <mxGeometry x="110" y="15" width="720" height="1069.17" as="geometry" />
        </mxCell>
        <mxCell id="XUdCCkIB8lKNxsG4U0Wu-2" value="&amp;nbsp;" style="html=1;strokeColor=none;resizeWidth=1;resizeHeight=1;fillColor=none;part=1;connectable=0;allowArrows=0;deletable=0;" vertex="1" parent="XUdCCkIB8lKNxsG4U0Wu-1">
          <mxGeometry width="711.9651402263767" height="629.9983659714618" relative="1" as="geometry">
            <mxPoint y="30" as="offset" />
          </mxGeometry>
        </mxCell>
        <mxCell id="8Av-SRVvD7OwvT-diLd_-1" value="Akses Hasil Konseling" style="shape=folder;fontStyle=1;tabWidth=150;tabHeight=30;tabPosition=left;html=1;boundedLbl=1;labelInHeader=1;container=1;collapsible=0;" vertex="1" parent="XUdCCkIB8lKNxsG4U0Wu-1">
          <mxGeometry x="386.0869565217391" y="334.58913217522445" width="260.8695652173913" height="189.99950719774245" as="geometry" />
        </mxCell>
        <mxCell id="8Av-SRVvD7OwvT-diLd_-2" value="&amp;nbsp;" style="html=1;strokeColor=none;resizeWidth=1;resizeHeight=1;fillColor=none;part=1;connectable=0;allowArrows=0;deletable=0;" vertex="1" parent="8Av-SRVvD7OwvT-diLd_-1">
          <mxGeometry width="260.86956521739137" height="88.32008342395059" relative="1" as="geometry">
            <mxPoint y="30" as="offset" />
          </mxGeometry>
        </mxCell>
        <mxCell id="ex2sl2DWh9lLaMLg6BbU-10" value="Riwayat_konseling" style="swimlane;fontStyle=0;childLayout=stackLayout;horizontal=1;startSize=30;horizontalStack=0;resizeParent=1;resizeParentMax=0;resizeLast=0;collapsible=1;marginBottom=0;whiteSpace=wrap;html=1;" vertex="1" parent="8Av-SRVvD7OwvT-diLd_-1">
          <mxGeometry x="10.434782608695652" y="39.999896252156304" width="113.62434782608696" height="60.309843574188676" as="geometry">
            <mxRectangle x="330" y="270" width="60" height="30" as="alternateBounds" />
          </mxGeometry>
        </mxCell>
        <mxCell id="ex2sl2DWh9lLaMLg6BbU-9" value="Hasil_konseling" style="swimlane;fontStyle=0;childLayout=stackLayout;horizontal=1;startSize=30;horizontalStack=0;resizeParent=1;resizeParentMax=0;resizeLast=0;collapsible=1;marginBottom=0;whiteSpace=wrap;html=1;" vertex="1" parent="8Av-SRVvD7OwvT-diLd_-1">
          <mxGeometry x="135.65217391304347" y="109.99971469342984" width="104.34782608695652" height="65.77982938667105" as="geometry">
            <mxRectangle x="330" y="270" width="60" height="30" as="alternateBounds" />
          </mxGeometry>
        </mxCell>
        <mxCell id="d8H4HUpR1O5sznSRMZIV-1" value="User" style="shape=folder;fontStyle=1;tabWidth=110;tabHeight=30;tabPosition=left;html=1;boundedLbl=1;labelInHeader=1;container=1;collapsible=0;" vertex="1" parent="XUdCCkIB8lKNxsG4U0Wu-1">
          <mxGeometry x="409.9969565217391" y="819.9978731692042" width="271.30434782608694" height="219.99942938685967" as="geometry" />
        </mxCell>
        <mxCell id="d8H4HUpR1O5sznSRMZIV-2" value="&amp;nbsp;" style="html=1;strokeColor=none;resizeWidth=1;resizeHeight=1;fillColor=none;part=1;connectable=0;allowArrows=0;deletable=0;" vertex="1" parent="d8H4HUpR1O5sznSRMZIV-1">
          <mxGeometry width="271.3973983626684" height="189.99950719774242" relative="1" as="geometry">
            <mxPoint y="30" as="offset" />
          </mxGeometry>
        </mxCell>
        <mxCell id="ex2sl2DWh9lLaMLg6BbU-2" value="User" style="swimlane;fontStyle=0;childLayout=stackLayout;horizontal=1;startSize=30;horizontalStack=0;resizeParent=1;resizeParentMax=0;resizeLast=0;collapsible=1;marginBottom=0;whiteSpace=wrap;html=1;" vertex="1" parent="d8H4HUpR1O5sznSRMZIV-1">
          <mxGeometry x="18.707196138383793" y="43.99988587737194" width="82.5924343212407" height="52.79986305284632" as="geometry">
            <mxRectangle x="330" y="270" width="60" height="30" as="alternateBounds" />
          </mxGeometry>
        </mxCell>
        <mxCell id="t5lIAvIwg_Cd2s7QDJrY-1" style="edgeStyle=orthogonalEdgeStyle;rounded=0;orthogonalLoop=1;jettySize=auto;html=1;exitX=0.5;exitY=0;exitDx=0;exitDy=0;entryX=0.5;entryY=1;entryDx=0;entryDy=0;endArrow=block;endFill=0;" edge="1" parent="d8H4HUpR1O5sznSRMZIV-1" source="ex2sl2DWh9lLaMLg6BbU-6" target="ex2sl2DWh9lLaMLg6BbU-2">
          <mxGeometry relative="1" as="geometry" />
        </mxCell>
        <mxCell id="ex2sl2DWh9lLaMLg6BbU-6" value="Admin" style="swimlane;fontStyle=0;childLayout=stackLayout;horizontal=1;startSize=30;horizontalStack=0;resizeParent=1;resizeParentMax=0;resizeLast=0;collapsible=1;marginBottom=0;whiteSpace=wrap;html=1;" vertex="1" parent="d8H4HUpR1O5sznSRMZIV-1">
          <mxGeometry x="18.707196138383793" y="139.99963688254707" width="82.5924343212407" height="52.79986305284632" as="geometry">
            <mxRectangle x="330" y="270" width="60" height="30" as="alternateBounds" />
          </mxGeometry>
        </mxCell>
        <mxCell id="t5lIAvIwg_Cd2s7QDJrY-4" style="edgeStyle=orthogonalEdgeStyle;rounded=0;orthogonalLoop=1;jettySize=auto;html=1;exitX=0;exitY=0.25;exitDx=0;exitDy=0;entryX=1;entryY=0.25;entryDx=0;entryDy=0;endArrow=block;endFill=0;" edge="1" parent="d8H4HUpR1O5sznSRMZIV-1" source="ex2sl2DWh9lLaMLg6BbU-7" target="ex2sl2DWh9lLaMLg6BbU-2">
          <mxGeometry relative="1" as="geometry" />
        </mxCell>
        <mxCell id="ex2sl2DWh9lLaMLg6BbU-7" value="Konselor" style="swimlane;fontStyle=0;childLayout=stackLayout;horizontal=1;startSize=30;horizontalStack=0;resizeParent=1;resizeParentMax=0;resizeLast=0;collapsible=1;marginBottom=0;whiteSpace=wrap;html=1;" vertex="1" parent="d8H4HUpR1O5sznSRMZIV-1">
          <mxGeometry x="156.5246669359656" y="43.99988587737194" width="82.5924343212407" height="52.79986305284632" as="geometry">
            <mxRectangle x="330" y="270" width="60" height="30" as="alternateBounds" />
          </mxGeometry>
        </mxCell>
        <mxCell id="t5lIAvIwg_Cd2s7QDJrY-3" style="edgeStyle=orthogonalEdgeStyle;rounded=0;orthogonalLoop=1;jettySize=auto;html=1;exitX=0;exitY=0.5;exitDx=0;exitDy=0;entryX=1;entryY=0.75;entryDx=0;entryDy=0;endArrow=block;endFill=0;" edge="1" parent="d8H4HUpR1O5sznSRMZIV-1" source="ex2sl2DWh9lLaMLg6BbU-8" target="ex2sl2DWh9lLaMLg6BbU-2">
          <mxGeometry relative="1" as="geometry">
            <Array as="points">
              <mxPoint x="121.61919040479759" y="165.99956944644865" />
              <mxPoint x="121.61919040479759" y="83.99978212952823" />
            </Array>
          </mxGeometry>
        </mxCell>
        <mxCell id="ex2sl2DWh9lLaMLg6BbU-8" value="Konseli" style="swimlane;fontStyle=0;childLayout=stackLayout;horizontal=1;startSize=30;horizontalStack=0;resizeParent=1;resizeParentMax=0;resizeLast=0;collapsible=1;marginBottom=0;whiteSpace=wrap;html=1;" vertex="1" parent="d8H4HUpR1O5sznSRMZIV-1">
          <mxGeometry x="156.5246669359656" y="139.99963688254707" width="82.5924343212407" height="52.79986305284632" as="geometry">
            <mxRectangle x="330" y="270" width="60" height="30" as="alternateBounds" />
          </mxGeometry>
        </mxCell>
        <mxCell id="P4BR73CDRtSTjQbmlU_U-1" value="Pra Konseling" style="shape=folder;fontStyle=1;tabWidth=110;tabHeight=30;tabPosition=left;html=1;boundedLbl=1;labelInHeader=1;container=1;collapsible=0;" vertex="1" parent="XUdCCkIB8lKNxsG4U0Wu-1">
          <mxGeometry x="46.95652173913043" y="97.49974711463099" width="255.65217391304347" height="184.9995201662229" as="geometry" />
        </mxCell>
        <mxCell id="P4BR73CDRtSTjQbmlU_U-2" value="&amp;nbsp;" style="html=1;strokeColor=none;resizeWidth=1;resizeHeight=1;fillColor=none;part=1;connectable=0;allowArrows=0;deletable=0;" vertex="1" parent="P4BR73CDRtSTjQbmlU_U-1">
          <mxGeometry width="255.65115135727646" height="129.49966411635603" relative="1" as="geometry">
            <mxPoint y="30" as="offset" />
          </mxGeometry>
        </mxCell>
        <mxCell id="ex2sl2DWh9lLaMLg6BbU-11" value="Daftar_konseling" style="swimlane;fontStyle=0;childLayout=stackLayout;horizontal=1;startSize=30;horizontalStack=0;resizeParent=1;resizeParentMax=0;resizeLast=0;collapsible=1;marginBottom=0;whiteSpace=wrap;html=1;" vertex="1" parent="P4BR73CDRtSTjQbmlU_U-1">
          <mxGeometry x="49.98167778522447" y="51.799334547441475" width="155.69381071958577" height="73.99980806648917" as="geometry">
            <mxRectangle x="330" y="270" width="60" height="30" as="alternateBounds" />
          </mxGeometry>
        </mxCell>
        <mxCell id="f-_O4plXIauO25f2_S3--21" style="edgeStyle=orthogonalEdgeStyle;rounded=0;orthogonalLoop=1;jettySize=auto;html=1;exitX=0;exitY=0;exitDx=270;exitDy=115;exitPerimeter=0;entryX=0.008;entryY=0.527;entryDx=0;entryDy=0;entryPerimeter=0;dashed=1;endArrow=open;endFill=0;" edge="1" parent="XUdCCkIB8lKNxsG4U0Wu-1" source="NbRcPZpZ8ptfEjqFAyhz-1" target="d8H4HUpR1O5sznSRMZIV-1">
          <mxGeometry relative="1" as="geometry" />
        </mxCell>
        <mxCell id="t94n1KxNKVsqxEoH1mrW-1" value="&amp;lt;&amp;lt;access&amp;gt;&amp;gt;" style="edgeLabel;html=1;align=center;verticalAlign=middle;resizable=0;points=[];" vertex="1" connectable="0" parent="f-_O4plXIauO25f2_S3--21">
          <mxGeometry x="-0.1688" relative="1" as="geometry">
            <mxPoint x="7" y="15" as="offset" />
          </mxGeometry>
        </mxCell>
        <mxCell id="NbRcPZpZ8ptfEjqFAyhz-1" value="Authentication methods" style="shape=folder;fontStyle=1;tabWidth=155;tabHeight=30;tabPosition=left;html=1;boundedLbl=1;labelInHeader=1;container=1;collapsible=0;" vertex="1" parent="XUdCCkIB8lKNxsG4U0Wu-1">
          <mxGeometry x="57.391304347826086" y="819.9978731692042" width="281.7391304347826" height="199.99948126078152" as="geometry" />
        </mxCell>
        <mxCell id="NbRcPZpZ8ptfEjqFAyhz-2" value="" style="html=1;strokeColor=none;resizeWidth=1;resizeHeight=1;fillColor=none;part=1;connectable=0;allowArrows=0;deletable=0;" vertex="1" parent="NbRcPZpZ8ptfEjqFAyhz-1">
          <mxGeometry width="254.39569349762328" height="139.99963688254704" relative="1" as="geometry">
            <mxPoint y="30" as="offset" />
          </mxGeometry>
        </mxCell>
        <mxCell id="NbRcPZpZ8ptfEjqFAyhz-5" value="Login" style="swimlane;fontStyle=0;childLayout=stackLayout;horizontal=1;startSize=30;horizontalStack=0;resizeParent=1;resizeParentMax=0;resizeLast=0;collapsible=1;marginBottom=0;whiteSpace=wrap;html=1;" vertex="1" parent="NbRcPZpZ8ptfEjqFAyhz-1">
          <mxGeometry x="16.836730434782606" y="49.99678909069416" width="120.07721739130434" height="57.646909304578216" as="geometry">
            <mxRectangle x="330" y="270" width="60" height="30" as="alternateBounds" />
          </mxGeometry>
        </mxCell>
        <mxCell id="NbRcPZpZ8ptfEjqFAyhz-6" value="Logout" style="swimlane;fontStyle=0;childLayout=stackLayout;horizontal=1;startSize=30;horizontalStack=0;resizeParent=1;resizeParentMax=0;resizeLast=0;collapsible=1;marginBottom=0;whiteSpace=wrap;html=1;" vertex="1" parent="NbRcPZpZ8ptfEjqFAyhz-1">
          <mxGeometry x="136.91394782608697" y="129.99537711633812" width="120.07721739130434" height="56.47044176775008" as="geometry">
            <mxRectangle x="330" y="270" width="60" height="30" as="alternateBounds" />
          </mxGeometry>
        </mxCell>
        <mxCell id="f-_O4plXIauO25f2_S3--22" style="edgeStyle=orthogonalEdgeStyle;rounded=0;orthogonalLoop=1;jettySize=auto;html=1;exitX=0;exitY=0;exitDx=275;exitDy=130.91500000000002;exitPerimeter=0;dashed=1;endArrow=open;endFill=0;" edge="1" parent="XUdCCkIB8lKNxsG4U0Wu-1" source="f-_O4plXIauO25f2_S3--6" target="8Av-SRVvD7OwvT-diLd_-1">
          <mxGeometry relative="1" as="geometry">
            <mxPoint x="650" y="485" as="targetPoint" />
            <Array as="points">
              <mxPoint x="690" y="700" />
              <mxPoint x="690" y="485" />
            </Array>
          </mxGeometry>
        </mxCell>
        <mxCell id="f-_O4plXIauO25f2_S3--25" value="&amp;lt;&amp;lt;access&amp;gt;&amp;gt;" style="edgeLabel;html=1;align=center;verticalAlign=middle;resizable=0;points=[];rotation=90;" vertex="1" connectable="0" parent="f-_O4plXIauO25f2_S3--22">
          <mxGeometry x="0.1273" y="-4" relative="1" as="geometry">
            <mxPoint as="offset" />
          </mxGeometry>
        </mxCell>
        <mxCell id="f-_O4plXIauO25f2_S3--6" value="Kelola konseling methods" style="shape=folder;fontStyle=1;tabWidth=155;tabHeight=31;tabPosition=left;html=1;boundedLbl=1;labelInHeader=1;container=1;collapsible=0;" vertex="1" parent="XUdCCkIB8lKNxsG4U0Wu-1">
          <mxGeometry x="386.0869565217391" y="569.1685237459952" width="286.95652173913044" height="230.82940129713103" as="geometry" />
        </mxCell>
        <mxCell id="f-_O4plXIauO25f2_S3--7" value="" style="html=1;strokeColor=none;resizeWidth=1;resizeHeight=1;fillColor=none;part=1;connectable=0;allowArrows=0;deletable=0;" vertex="1" parent="f-_O4plXIauO25f2_S3--6">
          <mxGeometry width="259.10672485869037" height="149.62736614919098" relative="1" as="geometry">
            <mxPoint y="30" as="offset" />
          </mxGeometry>
        </mxCell>
        <mxCell id="f-_O4plXIauO25f2_S3--8" value="Melihat riwayat konseling" style="swimlane;fontStyle=0;childLayout=stackLayout;horizontal=1;startSize=30;horizontalStack=0;resizeParent=1;resizeParentMax=0;resizeLast=0;collapsible=1;marginBottom=0;whiteSpace=wrap;html=1;" vertex="1" parent="f-_O4plXIauO25f2_S3--6">
          <mxGeometry x="13.652508361204012" y="125.42870223089623" width="107.75217391304348" height="61.614411846434734" as="geometry">
            <mxRectangle x="330" y="270" width="60" height="30" as="alternateBounds" />
          </mxGeometry>
        </mxCell>
        <mxCell id="f-_O4plXIauO25f2_S3--9" value="Melihat hasil riwayat konseling (detail)" style="swimlane;fontStyle=0;childLayout=stackLayout;horizontal=1;startSize=30;horizontalStack=0;resizeParent=1;resizeParentMax=0;resizeLast=0;collapsible=1;marginBottom=0;whiteSpace=wrap;html=1;" vertex="1" parent="f-_O4plXIauO25f2_S3--6">
          <mxGeometry x="143.47826086956522" y="125.42870223089623" width="132.44147157190633" height="60.349704346840376" as="geometry">
            <mxRectangle x="330" y="270" width="60" height="30" as="alternateBounds" />
          </mxGeometry>
        </mxCell>
        <mxCell id="f-_O4plXIauO25f2_S3--10" value="Input hasil konseling" style="swimlane;fontStyle=0;childLayout=stackLayout;horizontal=1;startSize=30;horizontalStack=0;resizeParent=1;resizeParentMax=0;resizeLast=0;collapsible=1;marginBottom=0;whiteSpace=wrap;html=1;" vertex="1" parent="f-_O4plXIauO25f2_S3--6">
          <mxGeometry x="68.75919732441471" y="36.36479380875874" width="149.44916387959867" height="61.614411846434734" as="geometry">
            <mxRectangle x="330" y="270" width="60" height="30" as="alternateBounds" />
          </mxGeometry>
        </mxCell>
        <mxCell id="f-_O4plXIauO25f2_S3--20" style="edgeStyle=orthogonalEdgeStyle;rounded=0;orthogonalLoop=1;jettySize=auto;html=1;exitX=0;exitY=0;exitDx=260;exitDy=125.5;exitPerimeter=0;entryX=0;entryY=0;entryDx=0;entryDy=77.5;entryPerimeter=0;dashed=1;endArrow=open;endFill=0;" edge="1" parent="XUdCCkIB8lKNxsG4U0Wu-1" source="f-_O4plXIauO25f2_S3--11" target="d8H4HUpR1O5sznSRMZIV-1">
          <mxGeometry relative="1" as="geometry">
            <Array as="points">
              <mxPoint x="365.2173913043478" y="694.9981973812158" />
              <mxPoint x="365.2173913043478" y="897.9976708609091" />
            </Array>
          </mxGeometry>
        </mxCell>
        <mxCell id="f-_O4plXIauO25f2_S3--24" value="&amp;lt;&amp;lt;access&amp;gt;&amp;gt;" style="edgeLabel;html=1;align=center;verticalAlign=middle;resizable=0;points=[];rotation=90;" vertex="1" connectable="0" parent="f-_O4plXIauO25f2_S3--20">
          <mxGeometry x="-0.1288" y="2" relative="1" as="geometry">
            <mxPoint as="offset" />
          </mxGeometry>
        </mxCell>
        <mxCell id="f-_O4plXIauO25f2_S3--11" value="Konseling user methods" style="shape=folder;fontStyle=1;tabWidth=165;tabHeight=31;tabPosition=left;html=1;boundedLbl=1;labelInHeader=1;container=1;collapsible=0;" vertex="1" parent="XUdCCkIB8lKNxsG4U0Wu-1">
          <mxGeometry x="57.391304347826086" y="569.1685237459951" width="271.30434782608694" height="219.99942938685967" as="geometry" />
        </mxCell>
        <mxCell id="f-_O4plXIauO25f2_S3--12" value="" style="html=1;strokeColor=none;resizeWidth=1;resizeHeight=1;fillColor=none;part=1;connectable=0;allowArrows=0;deletable=0;" vertex="1" parent="f-_O4plXIauO25f2_S3--11">
          <mxGeometry width="244.97363077548908" height="142.60720249890403" relative="1" as="geometry">
            <mxPoint y="30" as="offset" />
          </mxGeometry>
        </mxCell>
        <mxCell id="f-_O4plXIauO25f2_S3--13" value="Menghapus user" style="swimlane;fontStyle=0;childLayout=stackLayout;horizontal=1;startSize=30;horizontalStack=0;resizeParent=1;resizeParentMax=0;resizeLast=0;collapsible=1;marginBottom=0;whiteSpace=wrap;html=1;" vertex="1" parent="f-_O4plXIauO25f2_S3--11">
          <mxGeometry x="15.652173913043478" y="139.62073554000065" width="101.87478260869564" height="58.72360874329871" as="geometry">
            <mxRectangle x="330" y="270" width="60" height="30" as="alternateBounds" />
          </mxGeometry>
        </mxCell>
        <mxCell id="f-_O4plXIauO25f2_S3--14" value="Mengedit user" style="swimlane;fontStyle=0;childLayout=stackLayout;horizontal=1;startSize=30;horizontalStack=0;resizeParent=1;resizeParentMax=0;resizeLast=0;collapsible=1;marginBottom=0;whiteSpace=wrap;html=1;" vertex="1" parent="f-_O4plXIauO25f2_S3--11">
          <mxGeometry x="135.65217391304347" y="140.83073240162838" width="125.21739130434783" height="57.518238341224645" as="geometry">
            <mxRectangle x="330" y="270" width="60" height="30" as="alternateBounds" />
          </mxGeometry>
        </mxCell>
        <mxCell id="f-_O4plXIauO25f2_S3--15" value="Menambah user" style="swimlane;fontStyle=0;childLayout=stackLayout;horizontal=1;startSize=30;horizontalStack=0;resizeParent=1;resizeParentMax=0;resizeLast=0;collapsible=1;marginBottom=0;whiteSpace=wrap;html=1;" vertex="1" parent="f-_O4plXIauO25f2_S3--11">
          <mxGeometry x="65.00869565217391" y="50.82860138154283" width="141.29739130434783" height="58.72360874329871" as="geometry">
            <mxRectangle x="330" y="270" width="60" height="30" as="alternateBounds" />
          </mxGeometry>
        </mxCell>
        <mxCell id="f-_O4plXIauO25f2_S3--23" style="edgeStyle=orthogonalEdgeStyle;rounded=0;orthogonalLoop=1;jettySize=auto;html=1;exitX=0;exitY=0;exitDx=260;exitDy=144.58638655462184;exitPerimeter=0;entryX=0;entryY=0;entryDx=0;entryDy=142.5;entryPerimeter=0;dashed=1;endArrow=open;endFill=0;" edge="1" parent="XUdCCkIB8lKNxsG4U0Wu-1" source="f-_O4plXIauO25f2_S3--1" target="-DI9REFhhnDqsvWQY2nJ-1">
          <mxGeometry relative="1" as="geometry" />
        </mxCell>
        <mxCell id="f-_O4plXIauO25f2_S3--27" value="&amp;lt;&amp;lt;access&amp;gt;&amp;gt;" style="edgeLabel;html=1;align=center;verticalAlign=middle;resizable=0;points=[];rotation=90;" vertex="1" connectable="0" parent="f-_O4plXIauO25f2_S3--23">
          <mxGeometry x="0.1988" relative="1" as="geometry">
            <mxPoint x="1" as="offset" />
          </mxGeometry>
        </mxCell>
        <mxCell id="f-_O4plXIauO25f2_S3--1" value="Pra Konseling methods" style="shape=folder;fontStyle=1;tabWidth=160;tabHeight=30;tabPosition=left;html=1;boundedLbl=1;labelInHeader=1;container=1;collapsible=0;" vertex="1" parent="XUdCCkIB8lKNxsG4U0Wu-1">
          <mxGeometry x="52.17391304347826" y="299.9992218911723" width="271.30434782608694" height="259.1721008938348" as="geometry" />
        </mxCell>
        <mxCell id="f-_O4plXIauO25f2_S3--2" value="" style="html=1;strokeColor=none;resizeWidth=1;resizeHeight=1;fillColor=none;part=1;connectable=0;allowArrows=0;deletable=0;" vertex="1" parent="f-_O4plXIauO25f2_S3--1">
          <mxGeometry width="244.97363077548908" height="167.99956425905643" relative="1" as="geometry">
            <mxPoint y="30" as="offset" />
          </mxGeometry>
        </mxCell>
        <mxCell id="f-_O4plXIauO25f2_S3--3" value="Terima pendaftaran" style="swimlane;fontStyle=0;childLayout=stackLayout;horizontal=1;startSize=30;horizontalStack=0;resizeParent=1;resizeParentMax=0;resizeLast=0;collapsible=1;marginBottom=0;whiteSpace=wrap;html=1;" vertex="1" parent="f-_O4plXIauO25f2_S3--1">
          <mxGeometry x="12.905321739130432" y="159.99588753922376" width="115.62991304347825" height="69.17629116549385" as="geometry">
            <mxRectangle x="330" y="270" width="60" height="30" as="alternateBounds" />
          </mxGeometry>
        </mxCell>
        <mxCell id="f-_O4plXIauO25f2_S3--4" value="Tolak pendaftaran" style="swimlane;fontStyle=0;childLayout=stackLayout;horizontal=1;startSize=30;horizontalStack=0;resizeParent=1;resizeParentMax=0;resizeLast=0;collapsible=1;marginBottom=0;whiteSpace=wrap;html=1;" vertex="1" parent="f-_O4plXIauO25f2_S3--1">
          <mxGeometry x="142.7787130434783" y="159.99444216482135" width="115.62991304347825" height="67.76453012130008" as="geometry">
            <mxRectangle x="330" y="270" width="60" height="30" as="alternateBounds" />
          </mxGeometry>
        </mxCell>
        <mxCell id="f-_O4plXIauO25f2_S3--5" value="Meilihat pendaftaran" style="swimlane;fontStyle=0;childLayout=stackLayout;horizontal=1;startSize=30;horizontalStack=0;resizeParent=1;resizeParentMax=0;resizeLast=0;collapsible=1;marginBottom=0;whiteSpace=wrap;html=1;" vertex="1" parent="f-_O4plXIauO25f2_S3--1">
          <mxGeometry x="77.84097391304341" y="49.996172845793886" width="115.62991304347825" height="69.17629116549385" as="geometry">
            <mxRectangle x="330" y="270" width="60" height="30" as="alternateBounds" />
          </mxGeometry>
        </mxCell>
        <mxCell id="-DI9REFhhnDqsvWQY2nJ-1" value="Kelola Konseling" style="shape=folder;fontStyle=1;tabWidth=130;tabHeight=30;tabPosition=left;html=1;boundedLbl=1;labelInHeader=1;container=1;collapsible=0;" vertex="1" parent="XUdCCkIB8lKNxsG4U0Wu-1">
          <mxGeometry x="391.30434782608694" y="99.99974063039076" width="260.8695652173913" height="179.99953313470337" as="geometry" />
        </mxCell>
        <mxCell id="-DI9REFhhnDqsvWQY2nJ-2" value="&amp;nbsp;" style="html=1;strokeColor=none;resizeWidth=1;resizeHeight=1;fillColor=none;part=1;connectable=0;allowArrows=0;deletable=0;" vertex="1" parent="-DI9REFhhnDqsvWQY2nJ-1">
          <mxGeometry width="266.55705996131525" height="131.9996576321158" relative="1" as="geometry">
            <mxPoint y="30" as="offset" />
          </mxGeometry>
        </mxCell>
        <mxCell id="-DI9REFhhnDqsvWQY2nJ-6" value="List_daftarkonseling" style="swimlane;fontStyle=0;childLayout=stackLayout;horizontal=1;startSize=30;horizontalStack=0;resizeParent=1;resizeParentMax=0;resizeLast=0;collapsible=1;marginBottom=0;whiteSpace=wrap;html=1;" vertex="1" parent="-DI9REFhhnDqsvWQY2nJ-1">
          <mxGeometry x="31.919438230594608" y="47.99987550258757" width="162.25212345471365" height="94.49975489571928" as="geometry">
            <mxRectangle x="330" y="270" width="60" height="30" as="alternateBounds" />
          </mxGeometry>
        </mxCell>
        <mxCell id="DbyXJnYQC9-3s44oPjRK-2" style="edgeStyle=orthogonalEdgeStyle;rounded=0;orthogonalLoop=1;jettySize=auto;html=1;exitX=1.002;exitY=0.614;exitDx=0;exitDy=0;exitPerimeter=0;entryX=1.002;entryY=0.739;entryDx=0;entryDy=0;entryPerimeter=0;endArrow=open;endFill=0;dashed=1;" edge="1" parent="XUdCCkIB8lKNxsG4U0Wu-1" source="8Av-SRVvD7OwvT-diLd_-1" target="-DI9REFhhnDqsvWQY2nJ-1">
          <mxGeometry relative="1" as="geometry" />
        </mxCell>
        <mxCell id="f-_O4plXIauO25f2_S3--26" value="&amp;lt;&amp;lt;access&amp;gt;&amp;gt;" style="edgeLabel;html=1;align=center;verticalAlign=middle;resizable=0;points=[];rotation=90;" vertex="1" connectable="0" parent="DbyXJnYQC9-3s44oPjRK-2">
          <mxGeometry x="0.2145" y="-4" relative="1" as="geometry">
            <mxPoint as="offset" />
          </mxGeometry>
        </mxCell>
        <mxCell id="DbyXJnYQC9-3s44oPjRK-1" style="edgeStyle=orthogonalEdgeStyle;rounded=0;orthogonalLoop=1;jettySize=auto;html=1;exitX=0;exitY=0;exitDx=0;exitDy=105;exitPerimeter=0;endArrow=open;endFill=0;dashed=1;entryX=0;entryY=0;entryDx=255.65217391304347;entryDy=107.49976008311145;entryPerimeter=0;" edge="1" parent="XUdCCkIB8lKNxsG4U0Wu-1" source="-DI9REFhhnDqsvWQY2nJ-1" target="P4BR73CDRtSTjQbmlU_U-1">
          <mxGeometry relative="1" as="geometry">
            <mxPoint x="310" y="205" as="targetPoint" />
          </mxGeometry>
        </mxCell>
        <mxCell id="f-_O4plXIauO25f2_S3--28" value="&amp;lt;&amp;lt;access&amp;gt;&amp;gt;" style="edgeLabel;html=1;align=center;verticalAlign=middle;resizable=0;points=[];" vertex="1" connectable="0" parent="DbyXJnYQC9-3s44oPjRK-1">
          <mxGeometry x="0.2706" y="-2" relative="1" as="geometry">
            <mxPoint x="15" y="-8" as="offset" />
          </mxGeometry>
        </mxCell>
      </root>
    </mxGraphModel>
  </diagram>
  <diagram id="SwnMdE82tu_B2EKSGZlD" name="Page-5">
    <mxGraphModel dx="1006" dy="508" grid="1" gridSize="10" guides="1" tooltips="1" connect="1" arrows="1" fold="1" page="1" pageScale="1" pageWidth="850" pageHeight="1100" math="0" shadow="0">
      <root>
        <mxCell id="0" />
        <mxCell id="1" parent="0" />
      </root>
    </mxGraphModel>
  </diagram>
</mxfile>
